ISO-10303-21;
HEADER;
FILE_DESCRIPTION (( 'STEP AP214' ),
    '1' );
FILE_NAME ('soporte_pcb.STEP',
    '2026-08-31T04:01:22',
    ( '' ),
    ( '' ),
    'SwSTEP 2.0',
    'SolidWorks 2026',
    '' );
FILE_SCHEMA (( 'AUTOMOTIVE_DESIGN' ));
ENDSEC;

DATA;
#1 = EDGE_CURVE ( 'NONE', #734, #428, #15, .T. ) ;
#2 = ORIENTED_EDGE ( 'NONE', *, *, #235, .F. ) ;
#3 = LINE ( 'NONE', #953, #378 ) ;
#4 = AXIS2_PLACEMENT_3D ( 'NONE', #864, #350, #491 ) ;
#5 = CARTESIAN_POINT ( 'NONE',  ( 0.000000000000000000, 18.62500000000001066, 3.000000000000000000 ) ) ;
#6 = ORIENTED_EDGE ( 'NONE', *, *, #299, .T. ) ;
#7 = EDGE_CURVE ( 'NONE', #909, #770, #424, .T. ) ;
#8 = FACE_OUTER_BOUND ( 'NONE', #767, .T. ) ;
#9 = DIRECTION ( 'NONE',  ( 1.000000000000000000, 0.000000000000000000, 0.000000000000000000 ) ) ;
#10 = VERTEX_POINT ( 'NONE', #576 ) ;
#11 = DIRECTION ( 'NONE',  ( -0.000000000000000000, -0.000000000000000000, -1.000000000000000000 ) ) ;
#12 = EDGE_CURVE ( 'NONE', #73, #685, #788, .T. ) ;
#13 = LINE ( 'NONE', #108, #162 ) ;
#14 = CARTESIAN_POINT ( 'NONE',  ( 85.00000000000000000, 28.62500000000001066, 0.000000000000000000 ) ) ;
#15 = CIRCLE ( 'NONE', #311, 3.250000000000002665 ) ;
#16 = ORIENTED_EDGE ( 'NONE', *, *, #331, .F. ) ;
#17 = VECTOR ( 'NONE', #67, 1000.000000000000000 ) ;
#18 = LINE ( 'NONE', #252, #623 ) ;
#19 = EDGE_CURVE ( 'NONE', #595, #188, #929, .T. ) ;
#20 = CARTESIAN_POINT ( 'NONE',  ( 80.00000000000000000, 28.62500000000001066, 3.000000000000000000 ) ) ;
#21 = VERTEX_POINT ( 'NONE', #496 ) ;
#22 = CARTESIAN_POINT ( 'NONE',  ( 10.50000000000000000, 37.62500000000000000, 6.500000000000000888 ) ) ;
#23 = DIRECTION ( 'NONE',  ( -1.000000000000000000, 0.000000000000000000, 0.000000000000000000 ) ) ;
#24 = DIRECTION ( 'NONE',  ( 1.000000000000000000, 0.000000000000000000, 0.000000000000000000 ) ) ;
#25 = ADVANCED_FACE ( 'NONE', ( #782 ), #338, .T. ) ;
#26 = VERTEX_POINT ( 'NONE', #489 ) ;
#27 = DIRECTION ( 'NONE',  ( 0.000000000000000000, 0.000000000000000000, 1.000000000000000000 ) ) ;
#28 = ORIENTED_EDGE ( 'NONE', *, *, #178, .T. ) ;
#29 = CARTESIAN_POINT ( 'NONE',  ( 80.00000000000000000, 28.62500000000001066, 3.000000000000000000 ) ) ;
#30 = DIRECTION ( 'NONE',  ( 0.000000000000000000, 1.000000000000000000, -0.000000000000000000 ) ) ;
#31 = ORIENTED_EDGE ( 'NONE', *, *, #166, .T. ) ;
#32 = AXIS2_PLACEMENT_3D ( 'NONE', #898, #68, #153 ) ;
#33 = EDGE_CURVE ( 'NONE', #10, #114, #554, .T. ) ;
#34 = AXIS2_PLACEMENT_3D ( 'NONE', #724, #416, #936 ) ;
#35 = CARTESIAN_POINT ( 'NONE',  ( 71.25000000000001421, 37.62500000000000000, 6.500000000000000888 ) ) ;
#36 = AXIS2_PLACEMENT_3D ( 'NONE', #510, #457, #531 ) ;
#37 = CARTESIAN_POINT ( 'NONE',  ( 0.000000000000000000, 0.000000000000000000, 0.000000000000000000 ) ) ;
#38 = AXIS2_PLACEMENT_3D ( 'NONE', #597, #897, #163 ) ;
#39 = ORIENTED_EDGE ( 'NONE', *, *, #189, .T. ) ;
#40 = VECTOR ( 'NONE', #55, 1000.000000000000000 ) ;
#41 = DIRECTION ( 'NONE',  ( -0.000000000000000000, 0.000000000000000000, 1.000000000000000000 ) ) ;
#42 = DIRECTION ( 'NONE',  ( -1.000000000000000000, 0.000000000000000000, 0.000000000000000000 ) ) ;
#43 = EDGE_LOOP ( 'NONE', ( #571, #429, #221, #938 ) ) ;
#44 = FACE_BOUND ( 'NONE', #421, .T. ) ;
#45 = ADVANCED_FACE ( 'NONE', ( #867 ), #355, .T. ) ;
#46 = FACE_OUTER_BOUND ( 'NONE', #626, .T. ) ;
#47 = ORIENTED_EDGE ( 'NONE', *, *, #809, .F. ) ;
#48 = AXIS2_PLACEMENT_3D ( 'NONE', #888, #435, #9 ) ;
#49 = DIRECTION ( 'NONE',  ( -0.000000000000000000, -0.000000000000000000, -1.000000000000000000 ) ) ;
#50 = LINE ( 'NONE', #205, #681 ) ;
#51 = ADVANCED_FACE ( 'NONE', ( #716 ), #876, .T. ) ;
#52 = ORIENTED_EDGE ( 'NONE', *, *, #793, .F. ) ;
#53 = VERTEX_POINT ( 'NONE', #280 ) ;
#54 = VECTOR ( 'NONE', #328, 1000.000000000000000 ) ;
#55 = DIRECTION ( 'NONE',  ( -0.000000000000000000, -0.000000000000000000, -1.000000000000000000 ) ) ;
#56 = CARTESIAN_POINT ( 'NONE',  ( 0.000000000000000000, 18.62500000000001066, 3.000000000000000000 ) ) ;
#57 = ORIENTED_EDGE ( 'NONE', *, *, #804, .F. ) ;
#58 = FILL_AREA_STYLE ('',( #569 ) ) ;
#59 = ORIENTED_EDGE ( 'NONE', *, *, #535, .F. ) ;
#60 = ORIENTED_EDGE ( 'NONE', *, *, #173, .F. ) ;
#61 = ADVANCED_FACE ( 'NONE', ( #482 ), #872, .F. ) ;
#62 = CIRCLE ( 'NONE', #250, 3.250000000000002665 ) ;
#63 = AXIS2_PLACEMENT_3D ( 'NONE', #799, #665, #74 ) ;
#64 = DIRECTION ( 'NONE',  ( 1.000000000000000000, 0.000000000000000000, 0.000000000000000000 ) ) ;
#65 = ORIENTED_EDGE ( 'NONE', *, *, #815, .T. ) ;
#66 = ORIENTED_EDGE ( 'NONE', *, *, #908, .F. ) ;
#67 = DIRECTION ( 'NONE',  ( -0.000000000000000000, -0.000000000000000000, -1.000000000000000000 ) ) ;
#68 = DIRECTION ( 'NONE',  ( -0.000000000000000000, 0.000000000000000000, 1.000000000000000000 ) ) ;
#69 = ORIENTED_EDGE ( 'NONE', *, *, #322, .T. ) ;
#70 = DIRECTION ( 'NONE',  ( -0.000000000000000000, -0.000000000000000000, -1.000000000000000000 ) ) ;
#71 = CARTESIAN_POINT ( 'NONE',  ( 74.50000000000000000, 9.624999999999998224, 7.500000000000000000 ) ) ;
#72 = CARTESIAN_POINT ( 'NONE',  ( 10.50000000000000000, 9.624999999999998224, 6.500000000000000888 ) ) ;
#73 = VERTEX_POINT ( 'NONE', #634 ) ;
#74 = DIRECTION ( 'NONE',  ( 1.000000000000000000, 0.000000000000000000, 0.000000000000000000 ) ) ;
#75 = CIRCLE ( 'NONE', #539, 3.249999999999988898 ) ;
#76 = LINE ( 'NONE', #661, #800 ) ;
#77 = ADVANCED_FACE ( 'NONE', ( #959 ), #728, .T. ) ;
#78 = EDGE_LOOP ( 'NONE', ( #59, #60 ) ) ;
#79 = LINE ( 'NONE', #600, #506 ) ;
#80 = CIRCLE ( 'NONE', #344, 3.400000000000000355 ) ;
#81 = CARTESIAN_POINT ( 'NONE',  ( 71.09999999999999432, 37.62500000000000000, 6.500000000000000888 ) ) ;
#82 = AXIS2_PLACEMENT_3D ( 'NONE', #395, #683, #691 ) ;
#83 = CARTESIAN_POINT ( 'NONE',  ( 10.50000000000000000, 9.624999999999998224, 7.500000000000000000 ) ) ;
#84 = ORIENTED_EDGE ( 'NONE', *, *, #299, .F. ) ;
#85 = CARTESIAN_POINT ( 'NONE',  ( 7.249999999999997335, 9.624999999999998224, 7.500000000000000000 ) ) ;
#86 = AXIS2_PLACEMENT_3D ( 'NONE', #22, #232, #750 ) ;
#87 = CYLINDRICAL_SURFACE ( 'NONE', #526, 3.400000000000000355 ) ;
#88 = CYLINDRICAL_SURFACE ( 'NONE', #126, 3.249999999999988898 ) ;
#89 = ORIENTED_EDGE ( 'NONE', *, *, #721, .T. ) ;
#90 = FACE_OUTER_BOUND ( 'NONE', #286, .T. ) ;
#91 = EDGE_CURVE ( 'NONE', #635, #428, #165, .T. ) ;
#92 = DIRECTION ( 'NONE',  ( -1.000000000000000000, 0.000000000000000000, 0.000000000000000000 ) ) ;
#93 = LINE ( 'NONE', #839, #278 ) ;
#94 = AXIS2_PLACEMENT_3D ( 'NONE', #666, #313, #605 ) ;
#95 = VERTEX_POINT ( 'NONE', #307 ) ;
#96 = VECTOR ( 'NONE', #747, 1000.000000000000000 ) ;
#97 = CARTESIAN_POINT ( 'NONE',  ( 0.000000000000000000, 0.000000000000000000, 0.000000000000000000 ) ) ;
#98 = EDGE_CURVE ( 'NONE', #148, #685, #444, .T. ) ;
#99 = CARTESIAN_POINT ( 'NONE',  ( 74.50000000000000000, 9.624999999999998224, 6.500000000000000888 ) ) ;
#100 = EDGE_CURVE ( 'NONE', #53, #713, #364, .T. ) ;
#101 = DIRECTION ( 'NONE',  ( 0.000000000000000000, 0.000000000000000000, 1.000000000000000000 ) ) ;
#102 = ORIENTED_EDGE ( 'NONE', *, *, #616, .T. ) ;
#103 = DIRECTION ( 'NONE',  ( -0.000000000000000000, -0.000000000000000000, -1.000000000000000000 ) ) ;
#104 = CARTESIAN_POINT ( 'NONE',  ( 80.00000000000000000, 18.62500000000001066, 3.000000000000000000 ) ) ;
#105 = EDGE_CURVE ( 'NONE', #428, #734, #632, .T. ) ;
#106 = ORIENTED_EDGE ( 'NONE', *, *, #882, .F. ) ;
#107 = VERTEX_POINT ( 'NONE', #220 ) ;
#108 = CARTESIAN_POINT ( 'NONE',  ( -1.157162601033940640E-14, 47.25000000000000000, 0.000000000000000000 ) ) ;
#109 = LINE ( 'NONE', #835, #756 ) ;
#110 = ORIENTED_EDGE ( 'NONE', *, *, #407, .F. ) ;
#111 = AXIS2_PLACEMENT_3D ( 'NONE', #778, #931, #64 ) ;
#112 = CARTESIAN_POINT ( 'NONE',  ( 10.50000000000000000, 37.62500000000000000, 6.500000000000000888 ) ) ;
#113 = CARTESIAN_POINT ( 'NONE',  ( 74.50000000000000000, 37.62500000000000000, 6.500000000000000888 ) ) ;
#114 = VERTEX_POINT ( 'NONE', #302 ) ;
#115 = AXIS2_PLACEMENT_3D ( 'NONE', #488, #781, #417 ) ;
#116 = PLANE ( 'NONE',  #254 ) ;
#117 = FACE_OUTER_BOUND ( 'NONE', #171, .T. ) ;
#118 = DIRECTION ( 'NONE',  ( -1.000000000000000000, 0.000000000000000000, 0.000000000000000000 ) ) ;
#119 = PRODUCT ( 'soporte_pcb', 'soporte_pcb', '', ( #335 ) ) ;
#120 = EDGE_CURVE ( 'NONE', #188, #595, #918, .T. ) ;
#121 = FACE_BOUND ( 'NONE', #925, .T. ) ;
#122 = DIRECTION ( 'NONE',  ( 1.000000000000000000, 0.000000000000000000, 0.000000000000000000 ) ) ;
#123 = DIRECTION ( 'NONE',  ( 0.000000000000000000, -0.000000000000000000, 1.000000000000000000 ) ) ;
#124 = ORIENTED_EDGE ( 'NONE', *, *, #916, .F. ) ;
#125 = AXIS2_PLACEMENT_3D ( 'NONE', #813, #895, #674 ) ;
#126 = AXIS2_PLACEMENT_3D ( 'NONE', #677, #657, #741 ) ;
#127 = CARTESIAN_POINT ( 'NONE',  ( 74.50000000000000000, 9.624999999999998224, 7.500000000000000000 ) ) ;
#128 = ADVANCED_FACE ( 'NONE', ( #143 ), #88, .T. ) ;
#129 = EDGE_CURVE ( 'NONE', #406, #148, #893, .T. ) ;
#130 = ORIENTED_EDGE ( 'NONE', *, *, #804, .T. ) ;
#131 = ORIENTED_EDGE ( 'NONE', *, *, #511, .F. ) ;
#132 = AXIS2_PLACEMENT_3D ( 'NONE', #463, #752, #316 ) ;
#133 = DIRECTION ( 'NONE',  ( -1.000000000000000000, 0.000000000000000000, 0.000000000000000000 ) ) ;
#134 = VERTEX_POINT ( 'NONE', #230 ) ;
#135 = EDGE_CURVE ( 'NONE', #928, #635, #62, .T. ) ;
#136 = EDGE_LOOP ( 'NONE', ( #461, #466, #370, #408 ) ) ;
#137 = DIRECTION ( 'NONE',  ( 1.000000000000000000, 0.000000000000000000, 0.000000000000000000 ) ) ;
#138 = CARTESIAN_POINT ( 'NONE',  ( 10.50000000000000000, 37.62500000000000000, 6.500000000000000888 ) ) ;
#139 = ORIENTED_EDGE ( 'NONE', *, *, #662, .T. ) ;
#140 = VECTOR ( 'NONE', #159, 1000.000000000000000 ) ;
#141 = CIRCLE ( 'NONE', #900, 3.400000000000000355 ) ;
#142 = CARTESIAN_POINT ( 'NONE',  ( 77.74999999999998579, 9.624999999999998224, 7.500000000000000000 ) ) ;
#143 = FACE_OUTER_BOUND ( 'NONE', #177, .T. ) ;
#144 = VERTEX_POINT ( 'NONE', #503 ) ;
#145 = CARTESIAN_POINT ( 'NONE',  ( 7.249999999999997335, 9.624999999999998224, 6.500000000000000888 ) ) ;
#146 = CARTESIAN_POINT ( 'NONE',  ( 10.50000000000000000, 37.62500000000000000, 6.500000000000000888 ) ) ;
#147 = DIRECTION ( 'NONE',  ( 1.000000000000000000, 0.000000000000000000, 0.000000000000000000 ) ) ;
#148 = VERTEX_POINT ( 'NONE', #14 ) ;
#149 =( LENGTH_UNIT ( ) NAMED_UNIT ( * ) SI_UNIT ( .MILLI., .METRE. ) );
#150 = VECTOR ( 'NONE', #342, 1000.000000000000000 ) ;
#151 = EDGE_CURVE ( 'NONE', #761, #231, #517, .T. ) ;
#152 = CARTESIAN_POINT ( 'NONE',  ( 10.50000000000000000, 37.62500000000000000, 7.500000000000000000 ) ) ;
#153 = DIRECTION ( 'NONE',  ( 1.000000000000000000, 0.000000000000000000, 0.000000000000000000 ) ) ;
#154 = EDGE_LOOP ( 'NONE', ( #327, #193, #856, #69, #287, #704, #941, #167 ) ) ;
#155 = CYLINDRICAL_SURFACE ( 'NONE', #913, 3.250000000000002665 ) ;
#156 = AXIS2_PLACEMENT_3D ( 'NONE', #97, #27, #339 ) ;
#157 = DIRECTION ( 'NONE',  ( -1.000000000000000000, 0.000000000000000000, 0.000000000000000000 ) ) ;
#158 = AXIS2_PLACEMENT_3D ( 'NONE', #855, #861, #122 ) ;
#159 = DIRECTION ( 'NONE',  ( 0.000000000000000000, 1.000000000000000000, -0.000000000000000000 ) ) ;
#160 = ORIENTED_EDGE ( 'NONE', *, *, #135, .F. ) ;
#161 = DIRECTION ( 'NONE',  ( -0.000000000000000000, 0.000000000000000000, 1.000000000000000000 ) ) ;
#162 = VECTOR ( 'NONE', #247, 1000.000000000000000 ) ;
#163 = DIRECTION ( 'NONE',  ( 1.000000000000000000, 0.000000000000000000, 0.000000000000000000 ) ) ;
#164 = AXIS2_PLACEMENT_3D ( 'NONE', #549, #905, #243 ) ;
#165 = LINE ( 'NONE', #225, #262 ) ;
#166 = EDGE_CURVE ( 'NONE', #134, #534, #680, .T. ) ;
#167 = ORIENTED_EDGE ( 'NONE', *, *, #100, .F. ) ;
#168 = DIRECTION ( 'NONE',  ( -1.000000000000000000, 0.000000000000000000, 0.000000000000000000 ) ) ;
#169 = CARTESIAN_POINT ( 'NONE',  ( 77.89999999999999147, 37.62500000000000000, 6.500000000000000888 ) ) ;
#170 = DIRECTION ( 'NONE',  ( -0.000000000000000000, -0.000000000000000000, -1.000000000000000000 ) ) ;
#171 = EDGE_LOOP ( 'NONE', ( #303, #237 ) ) ;
#172 = CARTESIAN_POINT ( 'NONE',  ( 0.000000000000000000, 0.000000000000000000, 6.500000000000000888 ) ) ;
#173 = EDGE_CURVE ( 'NONE', #297, #196, #786, .T. ) ;
#174 = PLANE ( 'NONE',  #283 ) ;
#175 = DIRECTION ( 'NONE',  ( 1.000000000000000000, 0.000000000000000000, 0.000000000000000000 ) ) ;
#176 = CIRCLE ( 'NONE', #832, 3.400000000000000355 ) ;
#177 = EDGE_LOOP ( 'NONE', ( #16, #783, #726, #318 ) ) ;
#178 = EDGE_CURVE ( 'NONE', #534, #134, #601, .T. ) ;
#179 = PLANE ( 'NONE',  #82 ) ;
#180 = DIRECTION ( 'NONE',  ( 1.000000000000000000, 0.000000000000000000, 0.000000000000000000 ) ) ;
#181 = VERTEX_POINT ( 'NONE', #369 ) ;
#182 = CARTESIAN_POINT ( 'NONE',  ( 0.000000000000000000, 0.000000000000000000, 3.000000000000000000 ) ) ;
#183 = EDGE_CURVE ( 'NONE', #181, #577, #520, .T. ) ;
#184 = LINE ( 'NONE', #545, #944 ) ;
#185 = VERTEX_POINT ( 'NONE', #523 ) ;
#186 = CARTESIAN_POINT ( 'NONE',  ( 0.000000000000000000, 0.000000000000000000, 3.000000000000000000 ) ) ;
#187 = CARTESIAN_POINT ( 'NONE',  ( 77.89999999999999147, 37.62500000000000000, 3.000000000000000000 ) ) ;
#188 = VERTEX_POINT ( 'NONE', #821 ) ;
#189 = EDGE_CURVE ( 'NONE', #610, #789, #76, .T. ) ;
#190 = ORIENTED_EDGE ( 'NONE', *, *, #290, .T. ) ;
#191 = CARTESIAN_POINT ( 'NONE',  ( 10.50000000000000000, 9.624999999999998224, 3.000000000000000000 ) ) ;
#192 = DIRECTION ( 'NONE',  ( 1.000000000000000000, 0.000000000000000000, 0.000000000000000000 ) ) ;
#193 = ORIENTED_EDGE ( 'NONE', *, *, #851, .F. ) ;
#194 = EDGE_CURVE ( 'NONE', #144, #267, #391, .T. ) ;
#195 = DIRECTION ( 'NONE',  ( 1.000000000000000000, 0.000000000000000000, 0.000000000000000000 ) ) ;
#196 = VERTEX_POINT ( 'NONE', #587 ) ;
#197 = ORIENTED_EDGE ( 'NONE', *, *, #511, .T. ) ;
#198 = EDGE_CURVE ( 'NONE', #275, #353, #513, .T. ) ;
#199 = DIRECTION ( 'NONE',  ( 1.000000000000000000, 0.000000000000000000, 0.000000000000000000 ) ) ;
#200 = DIRECTION ( 'NONE',  ( -1.000000000000000000, -2.449021377849609697E-16, 0.000000000000000000 ) ) ;
#201 =( GEOMETRIC_REPRESENTATION_CONTEXT ( 3 ) GLOBAL_UNCERTAINTY_ASSIGNED_CONTEXT ( ( #690 ) ) GLOBAL_UNIT_ASSIGNED_CONTEXT ( ( #149, #596, #315 ) ) REPRESENTATION_CONTEXT ( 'NONE', 'WORKASPACE' ) );
#202 = VERTEX_POINT ( 'NONE', #20 ) ;
#203 = DIRECTION ( 'NONE',  ( -0.000000000000000000, -0.000000000000000000, -1.000000000000000000 ) ) ;
#204 = EDGE_CURVE ( 'NONE', #21, #663, #723, .T. ) ;
#205 = CARTESIAN_POINT ( 'NONE',  ( 0.000000000000000000, 47.25000000000000000, 3.000000000000000000 ) ) ;
#206 = CARTESIAN_POINT ( 'NONE',  ( 10.50000000000000000, 9.624999999999998224, 6.500000000000000888 ) ) ;
#207 = VECTOR ( 'NONE', #516, 1000.000000000000000 ) ;
#208 = EDGE_LOOP ( 'NONE', ( #853, #947 ) ) ;
#209 = VECTOR ( 'NONE', #838, 1000.000000000000000 ) ;
#210 = DIRECTION ( 'NONE',  ( 1.000000000000000000, 0.000000000000000000, 0.000000000000000000 ) ) ;
#211 = EDGE_CURVE ( 'NONE', #114, #10, #847, .T. ) ;
#212 = EDGE_LOOP ( 'NONE', ( #932, #547, #382, #89 ) ) ;
#213 = ORIENTED_EDGE ( 'NONE', *, *, #189, .F. ) ;
#214 = DIRECTION ( 'NONE',  ( -0.000000000000000000, 0.000000000000000000, 1.000000000000000000 ) ) ;
#215 = DIRECTION ( 'NONE',  ( 0.000000000000000000, 1.000000000000000000, -0.000000000000000000 ) ) ;
#216 = VERTEX_POINT ( 'NONE', #620 ) ;
#217 = AXIS2_PLACEMENT_3D ( 'NONE', #37, #774, #175 ) ;
#218 = VECTOR ( 'NONE', #555, 1000.000000000000000 ) ;
#219 = DIRECTION ( 'NONE',  ( -0.000000000000000000, 0.000000000000000000, 1.000000000000000000 ) ) ;
#220 = CARTESIAN_POINT ( 'NONE',  ( 71.09999999999999432, 9.624999999999998224, 6.500000000000000888 ) ) ;
#221 = ORIENTED_EDGE ( 'NONE', *, *, #173, .T. ) ;
#222 = CARTESIAN_POINT ( 'NONE',  ( 71.09999999999999432, 9.624999999999998224, 3.000000000000000000 ) ) ;
#223 = ADVANCED_FACE ( 'NONE', ( #470 ), #609, .F. ) ;
#224 = CARTESIAN_POINT ( 'NONE',  ( 80.00000000000000000, 0.000000000000000000, 3.000000000000000000 ) ) ;
#225 = CARTESIAN_POINT ( 'NONE',  ( 13.75000000000000355, 9.624999999999998224, 7.500000000000000000 ) ) ;
#226 = ORIENTED_EDGE ( 'NONE', *, *, #638, .F. ) ;
#227 = FACE_OUTER_BOUND ( 'NONE', #580, .T. ) ;
#228 = ADVANCED_FACE ( 'NONE', ( #906 ), #329, .T. ) ;
#229 = DIRECTION ( 'NONE',  ( -0.000000000000000000, 0.000000000000000000, 1.000000000000000000 ) ) ;
#230 = CARTESIAN_POINT ( 'NONE',  ( 71.25000000000001421, 9.624999999999998224, 6.500000000000000888 ) ) ;
#231 = VERTEX_POINT ( 'NONE', #533 ) ;
#232 = DIRECTION ( 'NONE',  ( -0.000000000000000000, -0.000000000000000000, -1.000000000000000000 ) ) ;
#233 = DIRECTION ( 'NONE',  ( -1.000000000000000000, 0.000000000000000000, 0.000000000000000000 ) ) ;
#234 = VECTOR ( 'NONE', #215, 1000.000000000000000 ) ;
#235 = EDGE_CURVE ( 'NONE', #845, #606, #176, .T. ) ;
#236 = DIRECTION ( 'NONE',  ( 1.000000000000000000, 0.000000000000000000, 0.000000000000000000 ) ) ;
#237 = ORIENTED_EDGE ( 'NONE', *, *, #757, .T. ) ;
#238 = DIRECTION ( 'NONE',  ( -0.000000000000000000, -0.000000000000000000, -1.000000000000000000 ) ) ;
#239 = DIRECTION ( 'NONE',  ( 0.000000000000000000, 1.000000000000000000, 0.000000000000000000 ) ) ;
#240 = DIRECTION ( 'NONE',  ( 0.000000000000000000, 1.000000000000000000, -0.000000000000000000 ) ) ;
#241 = EDGE_CURVE ( 'NONE', #663, #21, #75, .T. ) ;
#242 = ORIENTED_EDGE ( 'NONE', *, *, #368, .F. ) ;
#243 = DIRECTION ( 'NONE',  ( 1.000000000000000000, 0.000000000000000000, 0.000000000000000000 ) ) ;
#244 = CARTESIAN_POINT ( 'NONE',  ( 10.50000000000000000, 9.624999999999998224, 6.500000000000000888 ) ) ;
#245 = EDGE_LOOP ( 'NONE', ( #546, #868 ) ) ;
#246 = ORIENTED_EDGE ( 'NONE', *, *, #265, .T. ) ;
#247 = DIRECTION ( 'NONE',  ( 1.000000000000000000, 2.449021377849609697E-16, 0.000000000000000000 ) ) ;
#248 = CIRCLE ( 'NONE', #36, 3.250000000000002665 ) ;
#249 = CYLINDRICAL_SURFACE ( 'NONE', #817, 3.400000000000000355 ) ;
#250 = AXIS2_PLACEMENT_3D ( 'NONE', #83, #748, #449 ) ;
#251 = EDGE_LOOP ( 'NONE', ( #552, #798 ) ) ;
#252 = CARTESIAN_POINT ( 'NONE',  ( 85.00000000000000000, 0.000000000000000000, 3.000000000000000000 ) ) ;
#253 = CARTESIAN_POINT ( 'NONE',  ( 13.90000000000000213, 9.624999999999998224, 3.000000000000000000 ) ) ;
#254 = AXIS2_PLACEMENT_3D ( 'NONE', #332, #934, #854 ) ;
#255 = EDGE_LOOP ( 'NONE', ( #242, #282, #818, #47 ) ) ;
#256 = CYLINDRICAL_SURFACE ( 'NONE', #948, 3.250000000000002665 ) ;
#257 = DIRECTION ( 'NONE',  ( -0.000000000000000000, 0.000000000000000000, 1.000000000000000000 ) ) ;
#258 = ORIENTED_EDGE ( 'NONE', *, *, #91, .F. ) ;
#259 = FACE_BOUND ( 'NONE', #78, .T. ) ;
#260 = DIRECTION ( 'NONE',  ( -0.000000000000000000, 0.000000000000000000, 1.000000000000000000 ) ) ;
#261 = ORIENTED_EDGE ( 'NONE', *, *, #462, .F. ) ;
#262 = VECTOR ( 'NONE', #374, 1000.000000000000000 ) ;
#263 = AXIS2_PLACEMENT_3D ( 'NONE', #71, #578, #157 ) ;
#264 = LINE ( 'NONE', #860, #542 ) ;
#265 = EDGE_CURVE ( 'NONE', #406, #73, #830, .T. ) ;
#266 = VERTEX_POINT ( 'NONE', #460 ) ;
#267 = VERTEX_POINT ( 'NONE', #253 ) ;
#268 = CARTESIAN_POINT ( 'NONE',  ( 0.000000000000000000, 47.25000000000000000, 3.000000000000000000 ) ) ;
#269 = SURFACE_SIDE_STYLE ('',( #354 ) ) ;
#270 = EDGE_LOOP ( 'NONE', ( #308, #419, #28, #386 ) ) ;
#271 = EDGE_LOOP ( 'NONE', ( #341, #655, #334, #562 ) ) ;
#272 = ADVANCED_FACE ( 'NONE', ( #465 ), #249, .T. ) ;
#273 = CARTESIAN_POINT ( 'NONE',  ( 10.50000000000000000, 9.624999999999998224, 7.500000000000000000 ) ) ;
#274 = PLANE ( 'NONE',  #111 ) ;
#275 = VERTEX_POINT ( 'NONE', #104 ) ;
#276 = ORIENTED_EDGE ( 'NONE', *, *, #670, .T. ) ;
#277 = VECTOR ( 'NONE', #180, 1000.000000000000000 ) ;
#278 = VECTOR ( 'NONE', #753, 1000.000000000000000 ) ;
#279 = ADVANCED_FACE ( 'NONE', ( #692 ), #703, .F. ) ;
#280 = CARTESIAN_POINT ( 'NONE',  ( 80.00000000000000000, 18.62500000000001066, 0.000000000000000000 ) ) ;
#281 = VECTOR ( 'NONE', #768, 1000.000000000000000 ) ;
#282 = ORIENTED_EDGE ( 'NONE', *, *, #7, .T. ) ;
#283 = AXIS2_PLACEMENT_3D ( 'NONE', #186, #239, #477 ) ;
#284 = DIRECTION ( 'NONE',  ( -0.000000000000000000, 0.000000000000000000, 1.000000000000000000 ) ) ;
#285 = PRODUCT_DEFINITION ( 'UNKNOWN', '', #617, #324 ) ;
#286 = EDGE_LOOP ( 'NONE', ( #323, #846, #39, #873 ) ) ;
#287 = ORIENTED_EDGE ( 'NONE', *, *, #592, .T. ) ;
#288 = CARTESIAN_POINT ( 'NONE',  ( 77.74999999999998579, 37.62500000000000000, 7.500000000000000000 ) ) ;
#289 = CARTESIAN_POINT ( 'NONE',  ( 74.50000000000000000, 9.624999999999998224, 6.500000000000000888 ) ) ;
#290 = EDGE_CURVE ( 'NONE', #107, #909, #403, .T. ) ;
#291 = ORIENTED_EDGE ( 'NONE', *, *, #105, .F. ) ;
#292 = LINE ( 'NONE', #702, #548 ) ;
#293 = AXIS2_PLACEMENT_3D ( 'NONE', #400, #903, #528 ) ;
#294 = CARTESIAN_POINT ( 'NONE',  ( 74.50000000000000000, 37.62500000000000000, 3.000000000000000000 ) ) ;
#295 = CARTESIAN_POINT ( 'NONE',  ( 10.50000000000000000, 37.62500000000000000, 6.500000000000000888 ) ) ;
#296 = EDGE_CURVE ( 'NONE', #713, #148, #93, .T. ) ;
#297 = VERTEX_POINT ( 'NONE', #187 ) ;
#298 = CARTESIAN_POINT ( 'NONE',  ( 0.000000000000000000, 0.000000000000000000, 3.000000000000000000 ) ) ;
#299 = EDGE_CURVE ( 'NONE', #216, #577, #184, .T. ) ;
#300 = CIRCLE ( 'NONE', #467, 3.400000000000000355 ) ;
#301 = CARTESIAN_POINT ( 'NONE',  ( 71.25000000000001421, 37.62500000000000000, 7.500000000000000000 ) ) ;
#302 = CARTESIAN_POINT ( 'NONE',  ( 13.90000000000000213, 9.624999999999998224, 6.500000000000000888 ) ) ;
#303 = ORIENTED_EDGE ( 'NONE', *, *, #462, .T. ) ;
#304 = CARTESIAN_POINT ( 'NONE',  ( 77.89999999999999147, 9.624999999999998224, 6.500000000000000888 ) ) ;
#305 = ADVANCED_FACE ( 'NONE', ( #321 ), #614, .T. ) ;
#306 = PLANE ( 'NONE',  #38 ) ;
#307 = CARTESIAN_POINT ( 'NONE',  ( 85.00000000000000000, 18.62500000000001066, 0.000000000000000000 ) ) ;
#308 = ORIENTED_EDGE ( 'NONE', *, *, #785, .F. ) ;
#309 = CYLINDRICAL_SURFACE ( 'NONE', #86, 3.400000000000003908 ) ;
#310 = DIRECTION ( 'NONE',  ( -0.000000000000000000, -0.000000000000000000, -1.000000000000000000 ) ) ;
#311 = AXIS2_PLACEMENT_3D ( 'NONE', #206, #485, #797 ) ;
#312 =( GEOMETRIC_REPRESENTATION_CONTEXT ( 3 ) GLOBAL_UNCERTAINTY_ASSIGNED_CONTEXT ( ( #917 ) ) GLOBAL_UNIT_ASSIGNED_CONTEXT ( ( #945, #628, #927 ) ) REPRESENTATION_CONTEXT ( 'NONE', 'WORKASPACE' ) );
#313 = DIRECTION ( 'NONE',  ( -0.000000000000000000, -0.000000000000000000, -1.000000000000000000 ) ) ;
#314 = EDGE_LOOP ( 'NONE', ( #766, #630, #668, #106 ) ) ;
#315 =( NAMED_UNIT ( * ) SI_UNIT ( $, .STERADIAN. ) SOLID_ANGLE_UNIT ( ) );
#316 = DIRECTION ( 'NONE',  ( 1.000000000000000000, 0.000000000000000000, 0.000000000000000000 ) ) ;
#317 = DIRECTION ( 'NONE',  ( -0.000000000000000000, 0.000000000000000000, 1.000000000000000000 ) ) ;
#318 = ORIENTED_EDGE ( 'NONE', *, *, #241, .T. ) ;
#319 = FACE_OUTER_BOUND ( 'NONE', #251, .T. ) ;
#320 = CARTESIAN_POINT ( 'NONE',  ( 80.00000000000000000, 28.62500000000001066, 0.000000000000000000 ) ) ;
#321 = FACE_OUTER_BOUND ( 'NONE', #314, .T. ) ;
#322 = EDGE_CURVE ( 'NONE', #761, #771, #109, .T. ) ;
#323 = ORIENTED_EDGE ( 'NONE', *, *, #322, .F. ) ;
#324 = PRODUCT_DEFINITION_CONTEXT ( 'detailed design', #346, 'design' ) ;
#325 = LINE ( 'NONE', #532, #589 ) ;
#326 = CARTESIAN_POINT ( 'NONE',  ( 77.74999999999998579, 37.62500000000000000, 7.500000000000000000 ) ) ;
#327 = ORIENTED_EDGE ( 'NONE', *, *, #682, .T. ) ;
#328 = DIRECTION ( 'NONE',  ( -0.000000000000000000, -0.000000000000000000, -1.000000000000000000 ) ) ;
#329 = CYLINDRICAL_SURFACE ( 'NONE', #711, 3.400000000000000355 ) ;
#330 = ORIENTED_EDGE ( 'NONE', *, *, #682, .F. ) ;
#331 = EDGE_CURVE ( 'NONE', #471, #21, #333, .T. ) ;
#332 = CARTESIAN_POINT ( 'NONE',  ( 0.000000000000000000, 0.000000000000000000, 3.000000000000000000 ) ) ;
#333 = LINE ( 'NONE', #326, #405 ) ;
#334 = ORIENTED_EDGE ( 'NONE', *, *, #487, .T. ) ;
#335 = PRODUCT_CONTEXT ( 'NONE', #911, 'mechanical' ) ;
#336 = DIRECTION ( 'NONE',  ( -0.000000000000000000, 0.000000000000000000, 1.000000000000000000 ) ) ;
#337 = SURFACE_STYLE_USAGE ( .BOTH. , #269 ) ;
#338 = PLANE ( 'NONE',  #649 ) ;
#339 = DIRECTION ( 'NONE',  ( 1.000000000000000000, 0.000000000000000000, 0.000000000000000000 ) ) ;
#340 = AXIS2_PLACEMENT_3D ( 'NONE', #769, #914, #42 ) ;
#341 = ORIENTED_EDGE ( 'NONE', *, *, #529, .F. ) ;
#342 = DIRECTION ( 'NONE',  ( 0.000000000000000000, 1.000000000000000000, -0.000000000000000000 ) ) ;
#343 = CYLINDRICAL_SURFACE ( 'NONE', #602, 3.400000000000000355 ) ;
#344 = AXIS2_PLACEMENT_3D ( 'NONE', #294, #448, #522 ) ;
#345 = CIRCLE ( 'NONE', #887, 3.249999999999988898 ) ;
#346 = APPLICATION_CONTEXT ( 'automotive_design' ) ;
#347 = DIRECTION ( 'NONE',  ( 0.000000000000000000, 1.000000000000000000, 0.000000000000000000 ) ) ;
#348 = EDGE_CURVE ( 'NONE', #445, #534, #697, .T. ) ;
#349 = ORIENTED_EDGE ( 'NONE', *, *, #290, .F. ) ;
#350 = DIRECTION ( 'NONE',  ( -0.000000000000000000, 0.000000000000000000, 1.000000000000000000 ) ) ;
#351 = FACE_BOUND ( 'NONE', #501, .T. ) ;
#352 = ORIENTED_EDGE ( 'NONE', *, *, #468, .T. ) ;
#353 = VERTEX_POINT ( 'NONE', #648 ) ;
#354 = SURFACE_STYLE_FILL_AREA ( #58 ) ;
#355 = PLANE ( 'NONE',  #570 ) ;
#356 = ORIENTED_EDGE ( 'NONE', *, *, #348, .F. ) ;
#357 = VECTOR ( 'NONE', #811, 1000.000000000000000 ) ;
#358 = AXIS2_PLACEMENT_3D ( 'NONE', #152, #214, #879 ) ;
#359 = DIRECTION ( 'NONE',  ( -0.000000000000000000, -0.000000000000000000, -1.000000000000000000 ) ) ;
#360 = ORIENTED_EDGE ( 'NONE', *, *, #809, .T. ) ;
#361 = EDGE_LOOP ( 'NONE', ( #356, #57, #590, #31 ) ) ;
#362 = ADVANCED_FACE ( 'NONE', ( #351, #644 ), #498, .T. ) ;
#363 = LINE ( 'NONE', #224, #760 ) ;
#364 = LINE ( 'NONE', #439, #234 ) ;
#365 = EDGE_LOOP ( 'NONE', ( #190, #641 ) ) ;
#366 = CYLINDRICAL_SURFACE ( 'NONE', #115, 3.400000000000000355 ) ;
#367 = FACE_BOUND ( 'NONE', #823, .T. ) ;
#368 = EDGE_CURVE ( 'NONE', #909, #107, #521, .T. ) ;
#369 = CARTESIAN_POINT ( 'NONE',  ( 7.099999999999996980, 37.62500000000000000, 3.000000000000000000 ) ) ;
#370 = ORIENTED_EDGE ( 'NONE', *, *, #265, .F. ) ;
#371 = APPLICATION_PROTOCOL_DEFINITION ( 'draft international standard', 'automotive_design', 1998, #911 ) ;
#372 = AXIS2_PLACEMENT_3D ( 'NONE', #816, #806, #147 ) ;
#373 = FACE_OUTER_BOUND ( 'NONE', #807, .T. ) ;
#374 = DIRECTION ( 'NONE',  ( -0.000000000000000000, -0.000000000000000000, -1.000000000000000000 ) ) ;
#375 = ADVANCED_FACE ( 'NONE', ( #46 ), #274, .T. ) ;
#376 = ORIENTED_EDGE ( 'NONE', *, *, #500, .T. ) ;
#377 = LINE ( 'NONE', #85, #409 ) ;
#378 = VECTOR ( 'NONE', #581, 1000.000000000000000 ) ;
#379 = AXIS2_PLACEMENT_3D ( 'NONE', #642, #336, #199 ) ;
#380 = CYLINDRICAL_SURFACE ( 'NONE', #263, 3.249999999999988898 ) ;
#381 = CARTESIAN_POINT ( 'NONE',  ( 0.000000000000000000, 0.000000000000000000, 0.000000000000000000 ) ) ;
#382 = ORIENTED_EDGE ( 'NONE', *, *, #500, .F. ) ;
#383 = DIRECTION ( 'NONE',  ( 0.000000000000000000, 0.000000000000000000, 1.000000000000000000 ) ) ;
#384 = CARTESIAN_POINT ( 'NONE',  ( 10.50000000000000000, 37.62500000000000000, 3.000000000000000000 ) ) ;
#385 = DIRECTION ( 'NONE',  ( -0.000000000000000000, 0.000000000000000000, 1.000000000000000000 ) ) ;
#386 = ORIENTED_EDGE ( 'NONE', *, *, #537, .F. ) ;
#387 = FACE_OUTER_BOUND ( 'NONE', #430, .T. ) ;
#388 = MANIFOLD_SOLID_BREP ( 'Boss-Extrude3', #880 ) ;
#389 = EDGE_CURVE ( 'NONE', #770, #857, #141, .T. ) ;
#390 = FACE_OUTER_BOUND ( 'NONE', #486, .T. ) ;
#391 = CIRCLE ( 'NONE', #372, 3.400000000000000355 ) ;
#392 = AXIS2_PLACEMENT_3D ( 'NONE', #940, #423, #210 ) ;
#393 = DIRECTION ( 'NONE',  ( -0.000000000000000000, -0.000000000000000000, -1.000000000000000000 ) ) ;
#394 = ORIENTED_EDGE ( 'NONE', *, *, #736, .F. ) ;
#395 = CARTESIAN_POINT ( 'NONE',  ( 85.00000000000000000, 0.000000000000000000, 3.000000000000000000 ) ) ;
#396 = ADVANCED_FACE ( 'NONE', ( #559, #117 ), #564, .T. ) ;
#397 = DIRECTION ( 'NONE',  ( -0.000000000000000000, -0.000000000000000000, -1.000000000000000000 ) ) ;
#398 = ORIENTED_EDGE ( 'NONE', *, *, #731, .F. ) ;
#399 = LINE ( 'NONE', #923, #281 ) ;
#400 = CARTESIAN_POINT ( 'NONE',  ( 74.50000000000000000, 37.62500000000000000, 6.500000000000000888 ) ) ;
#401 = ORIENTED_EDGE ( 'NONE', *, *, #194, .F. ) ;
#402 = CARTESIAN_POINT ( 'NONE',  ( 13.75000000000000355, 9.624999999999998224, 7.500000000000000000 ) ) ;
#403 = CIRCLE ( 'NONE', #505, 3.400000000000000355 ) ;
#404 = DIRECTION ( 'NONE',  ( -0.000000000000000000, -0.000000000000000000, -1.000000000000000000 ) ) ;
#405 = VECTOR ( 'NONE', #404, 1000.000000000000000 ) ;
#406 = VERTEX_POINT ( 'NONE', #637 ) ;
#407 = EDGE_CURVE ( 'NONE', #789, #771, #50, .T. ) ;
#408 = ORIENTED_EDGE ( 'NONE', *, *, #129, .T. ) ;
#409 = VECTOR ( 'NONE', #739, 1000.000000000000000 ) ;
#410 = CYLINDRICAL_SURFACE ( 'NONE', #643, 3.250000000000002665 ) ;
#411 = DIRECTION ( 'NONE',  ( -1.000000000000000000, 0.000000000000000000, 0.000000000000000000 ) ) ;
#412 = AXIS2_PLACEMENT_3D ( 'NONE', #483, #41, #568 ) ;
#413 = ORIENTED_EDGE ( 'NONE', *, *, #736, .T. ) ;
#414 = ADVANCED_FACE ( 'NONE', ( #871 ), #343, .T. ) ;
#415 = CARTESIAN_POINT ( 'NONE',  ( 0.000000000000000000, 47.25000000000000000, 0.000000000000000000 ) ) ;
#416 = DIRECTION ( 'NONE',  ( -0.000000000000000000, -0.000000000000000000, -1.000000000000000000 ) ) ;
#417 = DIRECTION ( 'NONE',  ( -1.000000000000000000, 0.000000000000000000, 0.000000000000000000 ) ) ;
#418 = VECTOR ( 'NONE', #11, 1000.000000000000000 ) ;
#419 = ORIENTED_EDGE ( 'NONE', *, *, #348, .T. ) ;
#420 = AXIS2_PLACEMENT_3D ( 'NONE', #672, #881, #236 ) ;
#421 = EDGE_LOOP ( 'NONE', ( #803, #689 ) ) ;
#422 = DIRECTION ( 'NONE',  ( -0.000000000000000000, 0.000000000000000000, 1.000000000000000000 ) ) ;
#423 = DIRECTION ( 'NONE',  ( -0.000000000000000000, 0.000000000000000000, 1.000000000000000000 ) ) ;
#424 = LINE ( 'NONE', #951, #865 ) ;
#425 = ORIENTED_EDGE ( 'NONE', *, *, #198, .F. ) ;
#426 = CARTESIAN_POINT ( 'NONE',  ( 13.75000000000000355, 9.624999999999998224, 6.500000000000000888 ) ) ;
#427 = DIRECTION ( 'NONE',  ( -0.000000000000000000, -0.000000000000000000, -1.000000000000000000 ) ) ;
#428 = VERTEX_POINT ( 'NONE', #426 ) ;
#429 = ORIENTED_EDGE ( 'NONE', *, *, #919, .T. ) ;
#430 = EDGE_LOOP ( 'NONE', ( #84, #261, #621, #952 ) ) ;
#431 = AXIS2_PLACEMENT_3D ( 'NONE', #779, #118, #565 ) ;
#432 = ADVANCED_FACE ( 'NONE', ( #810 ), #380, .T. ) ;
#433 = AXIS2_PLACEMENT_3D ( 'NONE', #886, #219, #727 ) ;
#434 = CARTESIAN_POINT ( 'NONE',  ( 7.100000000000000533, 9.624999999999998224, 6.500000000000000888 ) ) ;
#435 = DIRECTION ( 'NONE',  ( -0.000000000000000000, 0.000000000000000000, 1.000000000000000000 ) ) ;
#436 = ORIENTED_EDGE ( 'NONE', *, *, #721, .F. ) ;
#437 = CARTESIAN_POINT ( 'NONE',  ( 13.75000000000000355, 37.62500000000000000, 7.500000000000000000 ) ) ;
#438 = DIRECTION ( 'NONE',  ( 1.000000000000000000, 0.000000000000000000, 0.000000000000000000 ) ) ;
#439 = CARTESIAN_POINT ( 'NONE',  ( 80.00000000000000000, 0.000000000000000000, 0.000000000000000000 ) ) ;
#440 = ORIENTED_EDGE ( 'NONE', *, *, #19, .T. ) ;
#441 = CARTESIAN_POINT ( 'NONE',  ( 7.249999999999997335, 9.624999999999998224, 7.500000000000000000 ) ) ;
#442 = DIRECTION ( 'NONE',  ( 0.000000000000000000, 1.000000000000000000, 0.000000000000000000 ) ) ;
#443 = EDGE_CURVE ( 'NONE', #845, #196, #820, .T. ) ;
#444 = LINE ( 'NONE', #733, #140 ) ;
#445 = VERTEX_POINT ( 'NONE', #142 ) ;
#446 = AXIS2_PLACEMENT_3D ( 'NONE', #295, #385, #737 ) ;
#447 = VECTOR ( 'NONE', #794, 1000.000000000000000 ) ;
#448 = DIRECTION ( 'NONE',  ( -0.000000000000000000, 0.000000000000000000, 1.000000000000000000 ) ) ;
#449 = DIRECTION ( 'NONE',  ( 1.000000000000000000, 0.000000000000000000, 0.000000000000000000 ) ) ;
#450 = ORIENTED_EDGE ( 'NONE', *, *, #616, .F. ) ;
#451 = LINE ( 'NONE', #679, #859 ) ;
#452 = AXIS2_PLACEMENT_3D ( 'NONE', #732, #442, #740 ) ;
#453 = VECTOR ( 'NONE', #777, 1000.000000000000000 ) ;
#454 = LINE ( 'NONE', #593, #493 ) ;
#455 = CARTESIAN_POINT ( 'NONE',  ( 85.00000000000000000, 28.62500000000001066, 3.000000000000000000 ) ) ;
#456 = ORIENTED_EDGE ( 'NONE', *, *, #561, .T. ) ;
#457 = DIRECTION ( 'NONE',  ( -0.000000000000000000, 0.000000000000000000, 1.000000000000000000 ) ) ;
#458 = EDGE_CURVE ( 'NONE', #915, #904, #696, .T. ) ;
#459 = LINE ( 'NONE', #618, #495 ) ;
#460 = CARTESIAN_POINT ( 'NONE',  ( 7.099999999999996980, 37.62500000000000000, 6.500000000000000888 ) ) ;
#461 = ORIENTED_EDGE ( 'NONE', *, *, #98, .T. ) ;
#462 = EDGE_CURVE ( 'NONE', #266, #216, #479, .T. ) ;
#463 = CARTESIAN_POINT ( 'NONE',  ( 0.000000000000000000, 0.000000000000000000, 7.500000000000000000 ) ) ;
#464 = AXIS2_PLACEMENT_3D ( 'NONE', #289, #801, #594 ) ;
#465 = FACE_OUTER_BOUND ( 'NONE', #43, .T. ) ;
#466 = ORIENTED_EDGE ( 'NONE', *, *, #12, .F. ) ;
#467 = AXIS2_PLACEMENT_3D ( 'NONE', #191, #563, #195 ) ;
#468 = EDGE_CURVE ( 'NONE', #497, #471, #725, .T. ) ;
#469 = DIRECTION ( 'NONE',  ( 0.000000000000000000, 1.000000000000000000, -0.000000000000000000 ) ) ;
#470 = FACE_OUTER_BOUND ( 'NONE', #154, .T. ) ;
#471 = VERTEX_POINT ( 'NONE', #288 ) ;
#472 = CARTESIAN_POINT ( 'NONE',  ( 7.099999999999996980, 37.62500000000000000, 6.500000000000000888 ) ) ;
#473 = CARTESIAN_POINT ( 'NONE',  ( 85.00000000000000000, 0.000000000000000000, 3.000000000000000000 ) ) ;
#474 = ADVANCED_FACE ( 'NONE', ( #367, #373 ), #875, .T. ) ;
#475 = EDGE_LOOP ( 'NONE', ( #524, #922, #518, #66 ) ) ;
#476 = ORIENTED_EDGE ( 'NONE', *, *, #604, .T. ) ;
#477 = DIRECTION ( 'NONE',  ( 0.000000000000000000, -0.000000000000000000, 1.000000000000000000 ) ) ;
#478 = CARTESIAN_POINT ( 'NONE',  ( 74.50000000000000000, 9.624999999999998224, 6.500000000000000888 ) ) ;
#479 = CIRCLE ( 'NONE', #63, 3.400000000000003908 ) ;
#480 = ORIENTED_EDGE ( 'NONE', *, *, #844, .F. ) ;
#481 = LINE ( 'NONE', #730, #667 ) ;
#482 = FACE_OUTER_BOUND ( 'NONE', #212, .T. ) ;
#483 = CARTESIAN_POINT ( 'NONE',  ( 74.50000000000000000, 9.624999999999998224, 3.000000000000000000 ) ) ;
#484 = PRODUCT_DEFINITION_SHAPE ( 'NONE', 'NONE',  #285 ) ;
#485 = DIRECTION ( 'NONE',  ( -0.000000000000000000, 0.000000000000000000, 1.000000000000000000 ) ) ;
#486 = EDGE_LOOP ( 'NONE', ( #933, #124, #551, #476 ) ) ;
#487 = EDGE_CURVE ( 'NONE', #10, #144, #502, .T. ) ;
#488 = CARTESIAN_POINT ( 'NONE',  ( 10.50000000000000000, 9.624999999999998224, 6.500000000000000888 ) ) ;
#489 = CARTESIAN_POINT ( 'NONE',  ( 85.00000000000000000, 0.000000000000000000, 3.000000000000000000 ) ) ;
#490 = ORIENTED_EDGE ( 'NONE', *, *, #7, .F. ) ;
#491 = DIRECTION ( 'NONE',  ( 1.000000000000000000, 0.000000000000000000, 0.000000000000000000 ) ) ;
#492 = DIRECTION ( 'NONE',  ( -0.000000000000000000, -0.000000000000000000, -1.000000000000000000 ) ) ;
#493 = VECTOR ( 'NONE', #507, 1000.000000000000000 ) ;
#494 = PRODUCT_RELATED_PRODUCT_CATEGORY ( 'part', '', ( #119 ) ) ;
#495 = VECTOR ( 'NONE', #538, 1000.000000000000000 ) ;
#496 = CARTESIAN_POINT ( 'NONE',  ( 77.74999999999998579, 37.62500000000000000, 6.500000000000000888 ) ) ;
#497 = VERTEX_POINT ( 'NONE', #301 ) ;
#498 = PLANE ( 'NONE',  #392 ) ;
#499 = DIRECTION ( 'NONE',  ( -2.449021377849609697E-16, 1.000000000000000000, 0.000000000000000000 ) ) ;
#500 = EDGE_CURVE ( 'NONE', #275, #202, #363, .T. ) ;
#501 = EDGE_LOOP ( 'NONE', ( #583, #560 ) ) ;
#502 = LINE ( 'NONE', #434, #17 ) ;
#503 = CARTESIAN_POINT ( 'NONE',  ( 7.099999999999999645, 9.624999999999998224, 3.000000000000000000 ) ) ;
#504 = ORIENTED_EDGE ( 'NONE', *, *, #919, .F. ) ;
#505 = AXIS2_PLACEMENT_3D ( 'NONE', #478, #257, #540 ) ;
#506 = VECTOR ( 'NONE', #828, 1000.000000000000000 ) ;
#507 = DIRECTION ( 'NONE',  ( -0.000000000000000000, -0.000000000000000000, -1.000000000000000000 ) ) ;
#508 = DIRECTION ( 'NONE',  ( 0.000000000000000000, 1.000000000000000000, -0.000000000000000000 ) ) ;
#509 = ORIENTED_EDGE ( 'NONE', *, *, #604, .F. ) ;
#510 = CARTESIAN_POINT ( 'NONE',  ( 10.50000000000000000, 37.62500000000000000, 7.500000000000000000 ) ) ;
#511 = EDGE_CURVE ( 'NONE', #610, #26, #3, .T. ) ;
#512 = LINE ( 'NONE', #892, #207 ) ;
#513 = LINE ( 'NONE', #5, #277 ) ;
#514 = EDGE_LOOP ( 'NONE', ( #425, #376, #745, #246, #450, #213, #197, #139 ) ) ;
#515 = DIRECTION ( 'NONE',  ( -1.000000000000000000, 0.000000000000000000, 0.000000000000000000 ) ) ;
#516 = DIRECTION ( 'NONE',  ( -0.000000000000000000, -0.000000000000000000, -1.000000000000000000 ) ) ;
#517 = LINE ( 'NONE', #381, #943 ) ;
#518 = ORIENTED_EDGE ( 'NONE', *, *, #105, .T. ) ;
#519 = CARTESIAN_POINT ( 'NONE',  ( 13.75000000000000355, 37.62500000000000000, 7.500000000000000000 ) ) ;
#520 = CIRCLE ( 'NONE', #420, 3.400000000000003908 ) ;
#521 = CIRCLE ( 'NONE', #802, 3.400000000000000355 ) ;
#522 = DIRECTION ( 'NONE',  ( 1.000000000000000000, 0.000000000000000000, 0.000000000000000000 ) ) ;
#523 = CARTESIAN_POINT ( 'NONE',  ( 71.25000000000001421, 9.624999999999998224, 7.500000000000000000 ) ) ;
#524 = ORIENTED_EDGE ( 'NONE', *, *, #561, .F. ) ;
#525 = PLANE ( 'NONE',  #125 ) ;
#526 = AXIS2_PLACEMENT_3D ( 'NONE', #99, #686, #23 ) ;
#527 = FACE_OUTER_BOUND ( 'NONE', #475, .T. ) ;
#528 = DIRECTION ( 'NONE',  ( 1.000000000000000000, 0.000000000000000000, 0.000000000000000000 ) ) ;
#529 = EDGE_CURVE ( 'NONE', #114, #267, #454, .T. ) ;
#530 = ORIENTED_EDGE ( 'NONE', *, *, #204, .T. ) ;
#531 = DIRECTION ( 'NONE',  ( 1.000000000000000000, 0.000000000000000000, 0.000000000000000000 ) ) ;
#532 = CARTESIAN_POINT ( 'NONE',  ( -0.000000000000000000, 18.62500000000001066, 0.000000000000000000 ) ) ;
#533 = CARTESIAN_POINT ( 'NONE',  ( 85.00000000000000000, 0.000000000000000000, 0.000000000000000000 ) ) ;
#534 = VERTEX_POINT ( 'NONE', #660 ) ;
#535 = EDGE_CURVE ( 'NONE', #196, #297, #80, .T. ) ;
#536 = ORIENTED_EDGE ( 'NONE', *, *, #891, .T. ) ;
#537 = EDGE_CURVE ( 'NONE', #185, #134, #512, .T. ) ;
#538 = DIRECTION ( 'NONE',  ( 1.000000000000000000, 2.449021377849609697E-16, 0.000000000000000000 ) ) ;
#539 = AXIS2_PLACEMENT_3D ( 'NONE', #550, #843, #24 ) ;
#540 = DIRECTION ( 'NONE',  ( 1.000000000000000000, 0.000000000000000000, 0.000000000000000000 ) ) ;
#541 = EDGE_LOOP ( 'NONE', ( #398, #776, #883, #440 ) ) ;
#542 = VECTOR ( 'NONE', #707, 1000.000000000000000 ) ;
#543 = ADVANCED_FACE ( 'NONE', ( #805 ), #814, .T. ) ;
#544 = LINE ( 'NONE', #472, #54 ) ;
#545 = CARTESIAN_POINT ( 'NONE',  ( 13.90000000000000391, 37.62500000000000000, 6.500000000000000888 ) ) ;
#546 = ORIENTED_EDGE ( 'NONE', *, *, #241, .F. ) ;
#547 = ORIENTED_EDGE ( 'NONE', *, *, #670, .F. ) ;
#548 = VECTOR ( 'NONE', #585, 1000.000000000000000 ) ;
#549 = CARTESIAN_POINT ( 'NONE',  ( 74.50000000000000000, 37.62500000000000000, 6.500000000000000888 ) ) ;
#550 = CARTESIAN_POINT ( 'NONE',  ( 74.50000000000000000, 37.62500000000000000, 6.500000000000000888 ) ) ;
#551 = ORIENTED_EDGE ( 'NONE', *, *, #662, .F. ) ;
#552 = ORIENTED_EDGE ( 'NONE', *, *, #235, .T. ) ;
#553 = CARTESIAN_POINT ( 'NONE',  ( 74.50000000000000000, 37.62500000000000000, 7.500000000000000000 ) ) ;
#554 = CIRCLE ( 'NONE', #772, 3.400000000000000355 ) ;
#555 = DIRECTION ( 'NONE',  ( -0.000000000000000000, -0.000000000000000000, -1.000000000000000000 ) ) ;
#556 = COLOUR_RGB ( '',0.7921568627450980005, 0.8196078431372548767, 0.9333333333333333481 ) ;
#557 = ORIENTED_EDGE ( 'NONE', *, *, #1, .T. ) ;
#558 = DIRECTION ( 'NONE',  ( -0.000000000000000000, 0.000000000000000000, 1.000000000000000000 ) ) ;
#559 = FACE_BOUND ( 'NONE', #208, .T. ) ;
#560 = ORIENTED_EDGE ( 'NONE', *, *, #178, .F. ) ;
#561 = EDGE_CURVE ( 'NONE', #635, #928, #742, .T. ) ;
#562 = ORIENTED_EDGE ( 'NONE', *, *, #194, .T. ) ;
#563 = DIRECTION ( 'NONE',  ( -0.000000000000000000, 0.000000000000000000, 1.000000000000000000 ) ) ;
#564 = PLANE ( 'NONE',  #158 ) ;
#565 = DIRECTION ( 'NONE',  ( 0.000000000000000000, 0.000000000000000000, 1.000000000000000000 ) ) ;
#566 = ORIENTED_EDGE ( 'NONE', *, *, #151, .T. ) ;
#567 = ADVANCED_FACE ( 'NONE', ( #586 ), #653, .F. ) ;
#568 = DIRECTION ( 'NONE',  ( 1.000000000000000000, 0.000000000000000000, 0.000000000000000000 ) ) ;
#569 = FILL_AREA_STYLE_COLOUR ( '', #556 ) ;
#570 = AXIS2_PLACEMENT_3D ( 'NONE', #946, #499, #200 ) ;
#571 = ORIENTED_EDGE ( 'NONE', *, *, #675, .F. ) ;
#572 = STYLED_ITEM ( 'NONE', ( #866 ), #388 ) ;
#573 = EDGE_LOOP ( 'NONE', ( #889, #693, #718, #840 ) ) ;
#574 = ADVANCED_FACE ( 'NONE', ( #8 ), #306, .T. ) ;
#575 = CIRCLE ( 'NONE', #164, 3.400000000000000355 ) ;
#576 = CARTESIAN_POINT ( 'NONE',  ( 7.099999999999999645, 9.624999999999998224, 6.500000000000000888 ) ) ;
#577 = VERTEX_POINT ( 'NONE', #950 ) ;
#578 = DIRECTION ( 'NONE',  ( -0.000000000000000000, -0.000000000000000000, -1.000000000000000000 ) ) ;
#579 = CARTESIAN_POINT ( 'NONE',  ( 85.00000000000000000, 47.25000000000002132, 3.000000000000000000 ) ) ;
#580 = EDGE_LOOP ( 'NONE', ( #852, #536 ) ) ;
#581 = DIRECTION ( 'NONE',  ( 1.000000000000000000, 0.000000000000000000, 0.000000000000000000 ) ) ;
#582 = DIRECTION ( 'NONE',  ( -0.000000000000000000, 0.000000000000000000, 1.000000000000000000 ) ) ;
#583 = ORIENTED_EDGE ( 'NONE', *, *, #166, .F. ) ;
#584 = AXIS2_PLACEMENT_3D ( 'NONE', #684, #317, #765 ) ;
#585 = DIRECTION ( 'NONE',  ( 1.000000000000000000, 0.000000000000000000, 0.000000000000000000 ) ) ;
#586 = FACE_OUTER_BOUND ( 'NONE', #700, .T. ) ;
#587 = CARTESIAN_POINT ( 'NONE',  ( 71.09999999999999432, 37.62500000000000000, 3.000000000000000000 ) ) ;
#588 = AXIS2_PLACEMENT_3D ( 'NONE', #146, #359, #233 ) ;
#589 = VECTOR ( 'NONE', #841, 1000.000000000000000 ) ;
#590 = ORIENTED_EDGE ( 'NONE', *, *, #537, .T. ) ;
#591 = DIRECTION ( 'NONE',  ( -1.000000000000000000, 0.000000000000000000, 0.000000000000000000 ) ) ;
#592 = EDGE_CURVE ( 'NONE', #771, #685, #13, .T. ) ;
#593 = CARTESIAN_POINT ( 'NONE',  ( 13.90000000000000036, 9.624999999999998224, 6.500000000000000888 ) ) ;
#594 = DIRECTION ( 'NONE',  ( 1.000000000000000000, 0.000000000000000000, 0.000000000000000000 ) ) ;
#595 = VERTEX_POINT ( 'NONE', #763 ) ;
#596 =( NAMED_UNIT ( * ) PLANE_ANGLE_UNIT ( ) SI_UNIT ( $, .RADIAN. ) );
#597 = CARTESIAN_POINT ( 'NONE',  ( 0.000000000000000000, 0.000000000000000000, 7.500000000000000000 ) ) ;
#598 = DIRECTION ( 'NONE',  ( 1.000000000000000000, 0.000000000000000000, 0.000000000000000000 ) ) ;
#599 = EDGE_LOOP ( 'NONE', ( #652, #6, #942, #615 ) ) ;
#600 = CARTESIAN_POINT ( 'NONE',  ( 85.00000000000000000, 18.62500000000001066, 3.000000000000000000 ) ) ;
#601 = CIRCLE ( 'NONE', #32, 3.249999999999988898 ) ;
#602 = AXIS2_PLACEMENT_3D ( 'NONE', #787, #792, #133 ) ;
#603 = LINE ( 'NONE', #902, #453 ) ;
#604 = EDGE_CURVE ( 'NONE', #26, #231, #399, .T. ) ;
#605 = DIRECTION ( 'NONE',  ( -1.000000000000000000, 0.000000000000000000, 0.000000000000000000 ) ) ;
#606 = VERTEX_POINT ( 'NONE', #169 ) ;
#607 = CARTESIAN_POINT ( 'NONE',  ( 10.50000000000000000, 37.62500000000000000, 7.500000000000000000 ) ) ;
#608 = LINE ( 'NONE', #29, #209 ) ;
#609 = PLANE ( 'NONE',  #217 ) ;
#610 = VERTEX_POINT ( 'NONE', #182 ) ;
#611 = LINE ( 'NONE', #901, #418 ) ;
#612 = EDGE_LOOP ( 'NONE', ( #394, #658 ) ) ;
#613 = DIRECTION ( 'NONE',  ( 1.000000000000000000, 0.000000000000000000, 0.000000000000000000 ) ) ;
#614 = CYLINDRICAL_SURFACE ( 'NONE', #340, 3.250000000000002665 ) ;
#615 = ORIENTED_EDGE ( 'NONE', *, *, #688, .F. ) ;
#616 = EDGE_CURVE ( 'NONE', #789, #73, #459, .T. ) ;
#617 = PRODUCT_DEFINITION_FORMATION_WITH_SPECIFIED_SOURCE ( 'ANY', '', #119, .NOT_KNOWN. ) ;
#618 = CARTESIAN_POINT ( 'NONE',  ( -1.157162601033940640E-14, 47.25000000000000000, 3.000000000000000000 ) ) ;
#619 = VECTOR ( 'NONE', #240, 1000.000000000000000 ) ;
#620 = CARTESIAN_POINT ( 'NONE',  ( 13.90000000000000391, 37.62500000000000000, 6.500000000000000888 ) ) ;
#621 = ORIENTED_EDGE ( 'NONE', *, *, #688, .T. ) ;
#622 = EDGE_LOOP ( 'NONE', ( #566, #509, #131, #899 ) ) ;
#623 = VECTOR ( 'NONE', #469, 1000.000000000000000 ) ;
#624 = FACE_OUTER_BOUND ( 'NONE', #622, .T. ) ;
#625 = DIRECTION ( 'NONE',  ( -1.000000000000000000, 0.000000000000000000, 0.000000000000000000 ) ) ;
#626 = EDGE_LOOP ( 'NONE', ( #754, #456 ) ) ;
#627 = DIRECTION ( 'NONE',  ( -1.000000000000000000, 0.000000000000000000, 0.000000000000000000 ) ) ;
#628 =( NAMED_UNIT ( * ) PLANE_ANGLE_UNIT ( ) SI_UNIT ( $, .RADIAN. ) );
#629 = EDGE_LOOP ( 'NONE', ( #490, #349, #360, #413 ) ) ;
#630 = ORIENTED_EDGE ( 'NONE', *, *, #731, .T. ) ;
#631 = CARTESIAN_POINT ( 'NONE',  ( 71.09999999999999432, 37.62500000000000000, 6.500000000000000888 ) ) ;
#632 = CIRCLE ( 'NONE', #958, 3.250000000000002665 ) ;
#633 = ADVANCED_FACE ( 'NONE', ( #825 ), #834, .T. ) ;
#634 = CARTESIAN_POINT ( 'NONE',  ( 85.00000000000000000, 47.25000000000002132, 3.000000000000000000 ) ) ;
#635 = VERTEX_POINT ( 'NONE', #402 ) ;
#636 = CARTESIAN_POINT ( 'NONE',  ( 85.00000000000000000, 0.000000000000000000, 0.000000000000000000 ) ) ;
#637 = CARTESIAN_POINT ( 'NONE',  ( 85.00000000000000000, 28.62500000000001066, 3.000000000000000000 ) ) ;
#638 = EDGE_CURVE ( 'NONE', #497, #663, #912, .T. ) ;
#639 = DIRECTION ( 'NONE',  ( 1.000000000000000000, 0.000000000000000000, 0.000000000000000000 ) ) ;
#640 = ADVANCED_FACE ( 'NONE', ( #527 ), #256, .T. ) ;
#641 = ORIENTED_EDGE ( 'NONE', *, *, #368, .T. ) ;
#642 = CARTESIAN_POINT ( 'NONE',  ( 74.50000000000000000, 37.62500000000000000, 7.500000000000000000 ) ) ;
#643 = AXIS2_PLACEMENT_3D ( 'NONE', #273, #203, #627 ) ;
#644 = FACE_OUTER_BOUND ( 'NONE', #365, .T. ) ;
#645 = ORIENTED_EDGE ( 'NONE', *, *, #535, .T. ) ;
#646 = EDGE_LOOP ( 'NONE', ( #775, #831, #530, #226 ) ) ;
#647 = ADVANCED_FACE ( 'NONE', ( #390 ), #179, .F. ) ;
#648 = CARTESIAN_POINT ( 'NONE',  ( 85.00000000000000000, 18.62500000000001066, 3.000000000000000000 ) ) ;
#649 = AXIS2_PLACEMENT_3D ( 'NONE', #56, #347, #123 ) ;
#650 = ORIENTED_EDGE ( 'NONE', *, *, #1, .F. ) ;
#651 = MECHANICAL_DESIGN_GEOMETRIC_PRESENTATION_REPRESENTATION (  '', ( #572 ), #312 ) ;
#652 = ORIENTED_EDGE ( 'NONE', *, *, #757, .F. ) ;
#653 = PLANE ( 'NONE',  #452 ) ;
#654 = EDGE_LOOP ( 'NONE', ( #504, #2, #955, #645 ) ) ;
#655 = ORIENTED_EDGE ( 'NONE', *, *, #33, .F. ) ;
#656 = DIRECTION ( 'NONE',  ( 0.000000000000000000, 1.000000000000000000, -0.000000000000000000 ) ) ;
#657 = DIRECTION ( 'NONE',  ( -0.000000000000000000, -0.000000000000000000, -1.000000000000000000 ) ) ;
#658 = ORIENTED_EDGE ( 'NONE', *, *, #389, .F. ) ;
#659 = FACE_BOUND ( 'NONE', #612, .T. ) ;
#660 = CARTESIAN_POINT ( 'NONE',  ( 77.74999999999998579, 9.624999999999998224, 6.500000000000000888 ) ) ;
#661 = CARTESIAN_POINT ( 'NONE',  ( 0.000000000000000000, 0.000000000000000000, 3.000000000000000000 ) ) ;
#662 = EDGE_CURVE ( 'NONE', #26, #353, #18, .T. ) ;
#663 = VERTEX_POINT ( 'NONE', #35 ) ;
#664 = FACE_BOUND ( 'NONE', #245, .T. ) ;
#665 = DIRECTION ( 'NONE',  ( -0.000000000000000000, 0.000000000000000000, 1.000000000000000000 ) ) ;
#666 = CARTESIAN_POINT ( 'NONE',  ( 74.50000000000000000, 37.62500000000000000, 6.500000000000000888 ) ) ;
#667 = VECTOR ( 'NONE', #70, 1000.000000000000000 ) ;
#668 = ORIENTED_EDGE ( 'NONE', *, *, #120, .T. ) ;
#669 = PLANE ( 'NONE',  #842 ) ;
#670 = EDGE_CURVE ( 'NONE', #202, #713, #608, .T. ) ;
#671 = CARTESIAN_POINT ( 'NONE',  ( 10.50000000000000000, 9.624999999999998224, 7.500000000000000000 ) ) ;
#672 = CARTESIAN_POINT ( 'NONE',  ( 10.50000000000000000, 37.62500000000000000, 3.000000000000000000 ) ) ;
#673 = ORIENTED_EDGE ( 'NONE', *, *, #916, .T. ) ;
#674 = DIRECTION ( 'NONE',  ( 1.000000000000000000, 0.000000000000000000, 0.000000000000000000 ) ) ;
#675 = EDGE_CURVE ( 'NONE', #606, #845, #575, .T. ) ;
#676 = DIRECTION ( 'NONE',  ( -0.000000000000000000, 0.000000000000000000, 1.000000000000000000 ) ) ;
#677 = CARTESIAN_POINT ( 'NONE',  ( 74.50000000000000000, 37.62500000000000000, 7.500000000000000000 ) ) ;
#678 = ORIENTED_EDGE ( 'NONE', *, *, #198, .T. ) ;
#679 = CARTESIAN_POINT ( 'NONE',  ( 77.89999999999999147, 37.62500000000000000, 6.500000000000000888 ) ) ;
#680 = CIRCLE ( 'NONE', #464, 3.249999999999988898 ) ;
#681 = VECTOR ( 'NONE', #492, 1000.000000000000000 ) ;
#682 = EDGE_CURVE ( 'NONE', #53, #95, #325, .T. ) ;
#683 = DIRECTION ( 'NONE',  ( -1.000000000000000000, 0.000000000000000000, 0.000000000000000000 ) ) ;
#684 = CARTESIAN_POINT ( 'NONE',  ( 10.50000000000000000, 9.624999999999998224, 6.500000000000000888 ) ) ;
#685 = VERTEX_POINT ( 'NONE', #829 ) ;
#686 = DIRECTION ( 'NONE',  ( -0.000000000000000000, -0.000000000000000000, -1.000000000000000000 ) ) ;
#687 = DIRECTION ( 'NONE',  ( -1.000000000000000000, 0.000000000000000000, 0.000000000000000000 ) ) ;
#688 = EDGE_CURVE ( 'NONE', #266, #181, #544, .T. ) ;
#689 = ORIENTED_EDGE ( 'NONE', *, *, #717, .F. ) ;
#690 = UNCERTAINTY_MEASURE_WITH_UNIT (LENGTH_MEASURE( 1.000000000000000082E-05 ), #149, 'distance_accuracy_value', 'NONE');
#691 = DIRECTION ( 'NONE',  ( 0.000000000000000000, 0.000000000000000000, 1.000000000000000000 ) ) ;
#692 = FACE_OUTER_BOUND ( 'NONE', #136, .T. ) ;
#693 = ORIENTED_EDGE ( 'NONE', *, *, #529, .T. ) ;
#694 = AXIS2_PLACEMENT_3D ( 'NONE', #759, #625, #101 ) ;
#695 = CARTESIAN_POINT ( 'NONE',  ( 10.50000000000000000, 9.624999999999998224, 7.500000000000000000 ) ) ;
#696 = CIRCLE ( 'NONE', #358, 3.250000000000002665 ) ;
#697 = LINE ( 'NONE', #796, #218 ) ;
#698 = EDGE_LOOP ( 'NONE', ( #258, #160, #729, #557 ) ) ;
#699 = SHAPE_DEFINITION_REPRESENTATION ( #484, #907 ) ;
#700 = EDGE_LOOP ( 'NONE', ( #812, #795, #480, #276 ) ) ;
#701 = VECTOR ( 'NONE', #103, 1000.000000000000000 ) ;
#702 = CARTESIAN_POINT ( 'NONE',  ( 0.000000000000000000, 28.62500000000001066, 3.000000000000000000 ) ) ;
#703 = PLANE ( 'NONE',  #694 ) ;
#704 = ORIENTED_EDGE ( 'NONE', *, *, #98, .F. ) ;
#705 = AXIS2_PLACEMENT_3D ( 'NONE', #553, #49, #515 ) ;
#706 = ADVANCED_FACE ( 'NONE', ( #624 ), #174, .F. ) ;
#707 = DIRECTION ( 'NONE',  ( -0.000000000000000000, -0.000000000000000000, -1.000000000000000000 ) ) ;
#708 = DIRECTION ( 'NONE',  ( -0.000000000000000000, 0.000000000000000000, 1.000000000000000000 ) ) ;
#709 = FACE_OUTER_BOUND ( 'NONE', #514, .T. ) ;
#710 = ADVANCED_FACE ( 'NONE', ( #758 ), #87, .T. ) ;
#711 = AXIS2_PLACEMENT_3D ( 'NONE', #244, #397, #687 ) ;
#712 = DIRECTION ( 'NONE',  ( 1.000000000000000000, 0.000000000000000000, 0.000000000000000000 ) ) ;
#713 = VERTEX_POINT ( 'NONE', #320 ) ;
#714 = LINE ( 'NONE', #437, #40 ) ;
#715 = CIRCLE ( 'NONE', #762, 3.400000000000003908 ) ;
#716 = FACE_OUTER_BOUND ( 'NONE', #361, .T. ) ;
#717 = EDGE_CURVE ( 'NONE', #577, #181, #743, .T. ) ;
#718 = ORIENTED_EDGE ( 'NONE', *, *, #793, .T. ) ;
#719 = DIRECTION ( 'NONE',  ( -0.000000000000000000, 0.000000000000000000, 1.000000000000000000 ) ) ;
#720 = DIRECTION ( 'NONE',  ( -0.000000000000000000, 0.000000000000000000, 1.000000000000000000 ) ) ;
#721 = EDGE_CURVE ( 'NONE', #275, #53, #603, .T. ) ;
#722 = ORIENTED_EDGE ( 'NONE', *, *, #592, .F. ) ;
#723 = CIRCLE ( 'NONE', #293, 3.249999999999988898 ) ;
#724 = CARTESIAN_POINT ( 'NONE',  ( 74.50000000000000000, 9.624999999999998224, 7.500000000000000000 ) ) ;
#725 = CIRCLE ( 'NONE', #849, 3.249999999999988898 ) ;
#726 = ORIENTED_EDGE ( 'NONE', *, *, #638, .T. ) ;
#727 = DIRECTION ( 'NONE',  ( 1.000000000000000000, 0.000000000000000000, 0.000000000000000000 ) ) ;
#728 = CYLINDRICAL_SURFACE ( 'NONE', #94, 3.400000000000000355 ) ;
#729 = ORIENTED_EDGE ( 'NONE', *, *, #908, .T. ) ;
#730 = CARTESIAN_POINT ( 'NONE',  ( 0.000000000000000000, 0.000000000000000000, 3.000000000000000000 ) ) ;
#731 = EDGE_CURVE ( 'NONE', #904, #188, #714, .T. ) ;
#732 = CARTESIAN_POINT ( 'NONE',  ( 0.000000000000000000, 28.62500000000001066, 3.000000000000000000 ) ) ;
#733 = CARTESIAN_POINT ( 'NONE',  ( 85.00000000000000000, 0.000000000000000000, 0.000000000000000000 ) ) ;
#734 = VERTEX_POINT ( 'NONE', #145 ) ;
#735 = DIRECTION ( 'NONE',  ( 1.000000000000000000, 0.000000000000000000, 0.000000000000000000 ) ) ;
#736 = EDGE_CURVE ( 'NONE', #857, #770, #822, .T. ) ;
#737 = DIRECTION ( 'NONE',  ( 1.000000000000000000, 0.000000000000000000, 0.000000000000000000 ) ) ;
#738 = ORIENTED_EDGE ( 'NONE', *, *, #33, .T. ) ;
#739 = DIRECTION ( 'NONE',  ( -0.000000000000000000, -0.000000000000000000, -1.000000000000000000 ) ) ;
#740 = DIRECTION ( 'NONE',  ( 0.000000000000000000, -0.000000000000000000, 1.000000000000000000 ) ) ;
#741 = DIRECTION ( 'NONE',  ( -1.000000000000000000, 0.000000000000000000, 0.000000000000000000 ) ) ;
#742 = CIRCLE ( 'NONE', #869, 3.250000000000002665 ) ;
#743 = CIRCLE ( 'NONE', #870, 3.400000000000003908 ) ;
#744 = EDGE_CURVE ( 'NONE', #610, #761, #481, .T. ) ;
#745 = ORIENTED_EDGE ( 'NONE', *, *, #844, .T. ) ;
#746 = CARTESIAN_POINT ( 'NONE',  ( 7.249999999999997335, 37.62500000000000000, 7.500000000000000000 ) ) ;
#747 = DIRECTION ( 'NONE',  ( -0.000000000000000000, -0.000000000000000000, -1.000000000000000000 ) ) ;
#748 = DIRECTION ( 'NONE',  ( -0.000000000000000000, 0.000000000000000000, 1.000000000000000000 ) ) ;
#749 = EDGE_LOOP ( 'NONE', ( #352, #65 ) ) ;
#750 = DIRECTION ( 'NONE',  ( -1.000000000000000000, 0.000000000000000000, 0.000000000000000000 ) ) ;
#751 = ADVANCED_FACE ( 'NONE', ( #926 ), #366, .T. ) ;
#752 = DIRECTION ( 'NONE',  ( -0.000000000000000000, 0.000000000000000000, 1.000000000000000000 ) ) ;
#753 = DIRECTION ( 'NONE',  ( 1.000000000000000000, 0.000000000000000000, 0.000000000000000000 ) ) ;
#754 = ORIENTED_EDGE ( 'NONE', *, *, #135, .T. ) ;
#755 = AXIS2_PLACEMENT_3D ( 'NONE', #138, #708, #712 ) ;
#756 = VECTOR ( 'NONE', #30, 1000.000000000000000 ) ;
#757 = EDGE_CURVE ( 'NONE', #216, #266, #715, .T. ) ;
#758 = FACE_OUTER_BOUND ( 'NONE', #255, .T. ) ;
#759 = CARTESIAN_POINT ( 'NONE',  ( 85.00000000000000000, 0.000000000000000000, 3.000000000000000000 ) ) ;
#760 = VECTOR ( 'NONE', #656, 1000.000000000000000 ) ;
#761 = VERTEX_POINT ( 'NONE', #784 ) ;
#762 = AXIS2_PLACEMENT_3D ( 'NONE', #112, #558, #790 ) ;
#763 = CARTESIAN_POINT ( 'NONE',  ( 7.249999999999997335, 37.62500000000000000, 6.500000000000000888 ) ) ;
#764 = ADVANCED_FACE ( 'NONE', ( #259, #659, #121, #44, #709 ), #116, .T. ) ;
#765 = DIRECTION ( 'NONE',  ( 1.000000000000000000, 0.000000000000000000, 0.000000000000000000 ) ) ;
#766 = ORIENTED_EDGE ( 'NONE', *, *, #891, .F. ) ;
#767 = EDGE_LOOP ( 'NONE', ( #130, #863 ) ) ;
#768 = DIRECTION ( 'NONE',  ( -0.000000000000000000, -0.000000000000000000, -1.000000000000000000 ) ) ;
#769 = CARTESIAN_POINT ( 'NONE',  ( 10.50000000000000000, 37.62500000000000000, 7.500000000000000000 ) ) ;
#770 = VERTEX_POINT ( 'NONE', #956 ) ;
#771 = VERTEX_POINT ( 'NONE', #415 ) ;
#772 = AXIS2_PLACEMENT_3D ( 'NONE', #862, #720, #639 ) ;
#773 = CYLINDRICAL_SURFACE ( 'NONE', #705, 3.249999999999988898 ) ;
#774 = DIRECTION ( 'NONE',  ( -0.000000000000000000, 0.000000000000000000, 1.000000000000000000 ) ) ;
#775 = ORIENTED_EDGE ( 'NONE', *, *, #815, .F. ) ;
#776 = ORIENTED_EDGE ( 'NONE', *, *, #458, .F. ) ;
#777 = DIRECTION ( 'NONE',  ( -0.000000000000000000, -0.000000000000000000, -1.000000000000000000 ) ) ;
#778 = CARTESIAN_POINT ( 'NONE',  ( 0.000000000000000000, 0.000000000000000000, 7.500000000000000000 ) ) ;
#779 = CARTESIAN_POINT ( 'NONE',  ( 80.00000000000000000, 0.000000000000000000, 3.000000000000000000 ) ) ;
#780 = APPLICATION_PROTOCOL_DEFINITION ( 'draft international standard', 'automotive_design', 1998, #346 ) ;
#781 = DIRECTION ( 'NONE',  ( -0.000000000000000000, -0.000000000000000000, -1.000000000000000000 ) ) ;
#782 = FACE_OUTER_BOUND ( 'NONE', #836, .T. ) ;
#783 = ORIENTED_EDGE ( 'NONE', *, *, #468, .F. ) ;
#784 = CARTESIAN_POINT ( 'NONE',  ( 0.000000000000000000, 0.000000000000000000, 0.000000000000000000 ) ) ;
#785 = EDGE_CURVE ( 'NONE', #445, #185, #345, .T. ) ;
#786 = CIRCLE ( 'NONE', #48, 3.400000000000000355 ) ;
#787 = CARTESIAN_POINT ( 'NONE',  ( 74.50000000000000000, 9.624999999999998224, 6.500000000000000888 ) ) ;
#788 = LINE ( 'NONE', #579, #447 ) ;
#789 = VERTEX_POINT ( 'NONE', #268 ) ;
#790 = DIRECTION ( 'NONE',  ( 1.000000000000000000, 0.000000000000000000, 0.000000000000000000 ) ) ;
#791 = CIRCLE ( 'NONE', #379, 3.249999999999988898 ) ;
#792 = DIRECTION ( 'NONE',  ( -0.000000000000000000, -0.000000000000000000, -1.000000000000000000 ) ) ;
#793 = EDGE_CURVE ( 'NONE', #267, #144, #300, .T. ) ;
#794 = DIRECTION ( 'NONE',  ( -0.000000000000000000, -0.000000000000000000, -1.000000000000000000 ) ) ;
#795 = ORIENTED_EDGE ( 'NONE', *, *, #129, .F. ) ;
#796 = CARTESIAN_POINT ( 'NONE',  ( 77.74999999999998579, 9.624999999999998224, 7.500000000000000000 ) ) ;
#797 = DIRECTION ( 'NONE',  ( 1.000000000000000000, 0.000000000000000000, 0.000000000000000000 ) ) ;
#798 = ORIENTED_EDGE ( 'NONE', *, *, #675, .T. ) ;
#799 = CARTESIAN_POINT ( 'NONE',  ( 10.50000000000000000, 37.62500000000000000, 6.500000000000000888 ) ) ;
#800 = VECTOR ( 'NONE', #508, 1000.000000000000000 ) ;
#801 = DIRECTION ( 'NONE',  ( -0.000000000000000000, 0.000000000000000000, 1.000000000000000000 ) ) ;
#802 = AXIS2_PLACEMENT_3D ( 'NONE', #935, #719, #137 ) ;
#803 = ORIENTED_EDGE ( 'NONE', *, *, #183, .F. ) ;
#804 = EDGE_CURVE ( 'NONE', #185, #445, #837, .T. ) ;
#805 = FACE_OUTER_BOUND ( 'NONE', #599, .T. ) ;
#806 = DIRECTION ( 'NONE',  ( -0.000000000000000000, 0.000000000000000000, 1.000000000000000000 ) ) ;
#807 = EDGE_LOOP ( 'NONE', ( #738, #894 ) ) ;
#808 = DIRECTION ( 'NONE',  ( -0.000000000000000000, -0.000000000000000000, -1.000000000000000000 ) ) ;
#809 = EDGE_CURVE ( 'NONE', #107, #857, #264, .T. ) ;
#810 = FACE_OUTER_BOUND ( 'NONE', #270, .T. ) ;
#811 = DIRECTION ( 'NONE',  ( -0.000000000000000000, -0.000000000000000000, -1.000000000000000000 ) ) ;
#812 = ORIENTED_EDGE ( 'NONE', *, *, #296, .T. ) ;
#813 = CARTESIAN_POINT ( 'NONE',  ( 0.000000000000000000, 0.000000000000000000, 7.500000000000000000 ) ) ;
#814 = CYLINDRICAL_SURFACE ( 'NONE', #588, 3.400000000000003908 ) ;
#815 = EDGE_CURVE ( 'NONE', #471, #497, #791, .T. ) ;
#816 = CARTESIAN_POINT ( 'NONE',  ( 10.50000000000000000, 9.624999999999998224, 3.000000000000000000 ) ) ;
#817 = AXIS2_PLACEMENT_3D ( 'NONE', #921, #170, #411 ) ;
#818 = ORIENTED_EDGE ( 'NONE', *, *, #389, .T. ) ;
#819 = PRESENTATION_LAYER_ASSIGNMENT (  '', '', ( #572 ) ) ;
#820 = LINE ( 'NONE', #81, #96 ) ;
#821 = CARTESIAN_POINT ( 'NONE',  ( 13.75000000000000355, 37.62500000000000000, 6.500000000000000888 ) ) ;
#822 = CIRCLE ( 'NONE', #412, 3.400000000000000355 ) ;
#823 = EDGE_LOOP ( 'NONE', ( #650, #291 ) ) ;
#824 = FACE_OUTER_BOUND ( 'NONE', #541, .T. ) ;
#825 = FACE_OUTER_BOUND ( 'NONE', #749, .T. ) ;
#826 = DIRECTION ( 'NONE',  ( 1.000000000000000000, 0.000000000000000000, 0.000000000000000000 ) ) ;
#827 = ORIENTED_EDGE ( 'NONE', *, *, #12, .T. ) ;
#828 = DIRECTION ( 'NONE',  ( -0.000000000000000000, -0.000000000000000000, -1.000000000000000000 ) ) ;
#829 = CARTESIAN_POINT ( 'NONE',  ( 85.00000000000000000, 47.25000000000002132, 0.000000000000000000 ) ) ;
#830 = LINE ( 'NONE', #473, #619 ) ;
#831 = ORIENTED_EDGE ( 'NONE', *, *, #331, .T. ) ;
#832 = AXIS2_PLACEMENT_3D ( 'NONE', #113, #924, #826 ) ;
#833 = ADVANCED_FACE ( 'NONE', ( #939 ), #410, .T. ) ;
#834 = PLANE ( 'NONE',  #132 ) ;
#835 = CARTESIAN_POINT ( 'NONE',  ( 0.000000000000000000, 0.000000000000000000, 0.000000000000000000 ) ) ;
#836 = EDGE_LOOP ( 'NONE', ( #330, #436, #678, #673 ) ) ;
#837 = CIRCLE ( 'NONE', #4, 3.249999999999988898 ) ;
#838 = DIRECTION ( 'NONE',  ( -0.000000000000000000, -0.000000000000000000, -1.000000000000000000 ) ) ;
#839 = CARTESIAN_POINT ( 'NONE',  ( -0.000000000000000000, 28.62500000000001066, 0.000000000000000000 ) ) ;
#840 = ORIENTED_EDGE ( 'NONE', *, *, #487, .F. ) ;
#841 = DIRECTION ( 'NONE',  ( 1.000000000000000000, 0.000000000000000000, 0.000000000000000000 ) ) ;
#842 = AXIS2_PLACEMENT_3D ( 'NONE', #172, #161, #910 ) ;
#843 = DIRECTION ( 'NONE',  ( -0.000000000000000000, 0.000000000000000000, 1.000000000000000000 ) ) ;
#844 = EDGE_CURVE ( 'NONE', #202, #406, #292, .T. ) ;
#845 = VERTEX_POINT ( 'NONE', #631 ) ;
#846 = ORIENTED_EDGE ( 'NONE', *, *, #744, .F. ) ;
#847 = CIRCLE ( 'NONE', #584, 3.400000000000000355 ) ;
#848 = DIRECTION ( 'NONE',  ( 1.000000000000000000, 0.000000000000000000, 0.000000000000000000 ) ) ;
#849 = AXIS2_PLACEMENT_3D ( 'NONE', #957, #229, #735 ) ;
#850 = CARTESIAN_POINT ( 'NONE',  ( 74.50000000000000000, 9.624999999999998224, 3.000000000000000000 ) ) ;
#851 = EDGE_CURVE ( 'NONE', #231, #95, #884, .T. ) ;
#852 = ORIENTED_EDGE ( 'NONE', *, *, #458, .T. ) ;
#853 = ORIENTED_EDGE ( 'NONE', *, *, #19, .F. ) ;
#854 = DIRECTION ( 'NONE',  ( 1.000000000000000000, 0.000000000000000000, 0.000000000000000000 ) ) ;
#855 = CARTESIAN_POINT ( 'NONE',  ( 0.000000000000000000, 0.000000000000000000, 6.500000000000000888 ) ) ;
#856 = ORIENTED_EDGE ( 'NONE', *, *, #151, .F. ) ;
#857 = VERTEX_POINT ( 'NONE', #222 ) ;
#858 = ADVANCED_FACE ( 'NONE', ( #930 ), #773, .T. ) ;
#859 = VECTOR ( 'NONE', #238, 1000.000000000000000 ) ;
#860 = CARTESIAN_POINT ( 'NONE',  ( 71.09999999999999432, 9.624999999999998224, 6.500000000000000888 ) ) ;
#861 = DIRECTION ( 'NONE',  ( -0.000000000000000000, 0.000000000000000000, 1.000000000000000000 ) ) ;
#862 = CARTESIAN_POINT ( 'NONE',  ( 10.50000000000000000, 9.624999999999998224, 6.500000000000000888 ) ) ;
#863 = ORIENTED_EDGE ( 'NONE', *, *, #785, .T. ) ;
#864 = CARTESIAN_POINT ( 'NONE',  ( 74.50000000000000000, 9.624999999999998224, 7.500000000000000000 ) ) ;
#865 = VECTOR ( 'NONE', #427, 1000.000000000000000 ) ;
#866 = PRESENTATION_STYLE_ASSIGNMENT (( #337 ) ) ;
#867 = FACE_OUTER_BOUND ( 'NONE', #878, .T. ) ;
#868 = ORIENTED_EDGE ( 'NONE', *, *, #204, .F. ) ;
#869 = AXIS2_PLACEMENT_3D ( 'NONE', #671, #284, #438 ) ;
#870 = AXIS2_PLACEMENT_3D ( 'NONE', #384, #676, #613 ) ;
#871 = FACE_OUTER_BOUND ( 'NONE', #629, .T. ) ;
#872 = PLANE ( 'NONE',  #431 ) ;
#873 = ORIENTED_EDGE ( 'NONE', *, *, #407, .T. ) ;
#874 = AXIS2_PLACEMENT_3D ( 'NONE', #298, #591, #383 ) ;
#875 = PLANE ( 'NONE',  #433 ) ;
#876 = CYLINDRICAL_SURFACE ( 'NONE', #34, 3.249999999999988898 ) ;
#877 = ADVANCED_FACE ( 'NONE', ( #90 ), #890, .T. ) ;
#878 = EDGE_LOOP ( 'NONE', ( #722, #110, #102, #827 ) ) ;
#879 = DIRECTION ( 'NONE',  ( 1.000000000000000000, 0.000000000000000000, 0.000000000000000000 ) ) ;
#880 = CLOSED_SHELL ( 'NONE', ( #305, #640, #432, #858, #272, #710, #751, #543, #25, #61, #567, #279, #45, #877, #706, #647, #764, #223, #896, #396, #228, #474, #414, #362, #77, #937, #128, #633, #51, #574, #833, #375, #949, #885 ) ) ;
#881 = DIRECTION ( 'NONE',  ( -0.000000000000000000, 0.000000000000000000, 1.000000000000000000 ) ) ;
#882 = EDGE_CURVE ( 'NONE', #915, #595, #611, .T. ) ;
#883 = ORIENTED_EDGE ( 'NONE', *, *, #882, .T. ) ;
#884 = LINE ( 'NONE', #636, #150 ) ;
#885 = ADVANCED_FACE ( 'NONE', ( #227 ), #525, .T. ) ;
#886 = CARTESIAN_POINT ( 'NONE',  ( 0.000000000000000000, 0.000000000000000000, 6.500000000000000888 ) ) ;
#887 = AXIS2_PLACEMENT_3D ( 'NONE', #127, #422, #848 ) ;
#888 = CARTESIAN_POINT ( 'NONE',  ( 74.50000000000000000, 37.62500000000000000, 3.000000000000000000 ) ) ;
#889 = ORIENTED_EDGE ( 'NONE', *, *, #211, .F. ) ;
#890 = PLANE ( 'NONE',  #874 ) ;
#891 = EDGE_CURVE ( 'NONE', #904, #915, #248, .T. ) ;
#892 = CARTESIAN_POINT ( 'NONE',  ( 71.25000000000001421, 9.624999999999998224, 7.500000000000000000 ) ) ;
#893 = LINE ( 'NONE', #455, #357 ) ;
#894 = ORIENTED_EDGE ( 'NONE', *, *, #211, .T. ) ;
#895 = DIRECTION ( 'NONE',  ( -0.000000000000000000, 0.000000000000000000, 1.000000000000000000 ) ) ;
#896 = ADVANCED_FACE ( 'NONE', ( #387 ), #309, .T. ) ;
#897 = DIRECTION ( 'NONE',  ( -0.000000000000000000, 0.000000000000000000, 1.000000000000000000 ) ) ;
#898 = CARTESIAN_POINT ( 'NONE',  ( 74.50000000000000000, 9.624999999999998224, 6.500000000000000888 ) ) ;
#899 = ORIENTED_EDGE ( 'NONE', *, *, #744, .T. ) ;
#900 = AXIS2_PLACEMENT_3D ( 'NONE', #850, #260, #192 ) ;
#901 = CARTESIAN_POINT ( 'NONE',  ( 7.249999999999997335, 37.62500000000000000, 7.500000000000000000 ) ) ;
#902 = CARTESIAN_POINT ( 'NONE',  ( 80.00000000000000000, 18.62500000000001066, 3.000000000000000000 ) ) ;
#903 = DIRECTION ( 'NONE',  ( -0.000000000000000000, 0.000000000000000000, 1.000000000000000000 ) ) ;
#904 = VERTEX_POINT ( 'NONE', #519 ) ;
#905 = DIRECTION ( 'NONE',  ( -0.000000000000000000, 0.000000000000000000, 1.000000000000000000 ) ) ;
#906 = FACE_OUTER_BOUND ( 'NONE', #271, .T. ) ;
#907 = ADVANCED_BREP_SHAPE_REPRESENTATION ( 'soporte_pcb', ( #388, #156 ), #201 ) ;
#908 = EDGE_CURVE ( 'NONE', #928, #734, #377, .T. ) ;
#909 = VERTEX_POINT ( 'NONE', #304 ) ;
#910 = DIRECTION ( 'NONE',  ( 1.000000000000000000, 0.000000000000000000, 0.000000000000000000 ) ) ;
#911 = APPLICATION_CONTEXT ( 'automotive_design' ) ;
#912 = LINE ( 'NONE', #920, #701 ) ;
#913 = AXIS2_PLACEMENT_3D ( 'NONE', #607, #808, #168 ) ;
#914 = DIRECTION ( 'NONE',  ( -0.000000000000000000, -0.000000000000000000, -1.000000000000000000 ) ) ;
#915 = VERTEX_POINT ( 'NONE', #746 ) ;
#916 = EDGE_CURVE ( 'NONE', #353, #95, #79, .T. ) ;
#917 = UNCERTAINTY_MEASURE_WITH_UNIT (LENGTH_MEASURE( 1.000000000000000082E-05 ), #945, 'distance_accuracy_value', 'NONE');
#918 = CIRCLE ( 'NONE', #446, 3.250000000000002665 ) ;
#919 = EDGE_CURVE ( 'NONE', #606, #297, #451, .T. ) ;
#920 = CARTESIAN_POINT ( 'NONE',  ( 71.25000000000001421, 37.62500000000000000, 7.500000000000000000 ) ) ;
#921 = CARTESIAN_POINT ( 'NONE',  ( 74.50000000000000000, 37.62500000000000000, 6.500000000000000888 ) ) ;
#922 = ORIENTED_EDGE ( 'NONE', *, *, #91, .T. ) ;
#923 = CARTESIAN_POINT ( 'NONE',  ( 85.00000000000000000, 0.000000000000000000, 3.000000000000000000 ) ) ;
#924 = DIRECTION ( 'NONE',  ( -0.000000000000000000, 0.000000000000000000, 1.000000000000000000 ) ) ;
#925 = EDGE_LOOP ( 'NONE', ( #401, #52 ) ) ;
#926 = FACE_OUTER_BOUND ( 'NONE', #573, .T. ) ;
#927 =( NAMED_UNIT ( * ) SI_UNIT ( $, .STERADIAN. ) SOLID_ANGLE_UNIT ( ) );
#928 = VERTEX_POINT ( 'NONE', #441 ) ;
#929 = CIRCLE ( 'NONE', #755, 3.250000000000002665 ) ;
#930 = FACE_OUTER_BOUND ( 'NONE', #646, .T. ) ;
#931 = DIRECTION ( 'NONE',  ( -0.000000000000000000, 0.000000000000000000, 1.000000000000000000 ) ) ;
#932 = ORIENTED_EDGE ( 'NONE', *, *, #100, .T. ) ;
#933 = ORIENTED_EDGE ( 'NONE', *, *, #851, .T. ) ;
#934 = DIRECTION ( 'NONE',  ( -0.000000000000000000, 0.000000000000000000, 1.000000000000000000 ) ) ;
#935 = CARTESIAN_POINT ( 'NONE',  ( 74.50000000000000000, 9.624999999999998224, 6.500000000000000888 ) ) ;
#936 = DIRECTION ( 'NONE',  ( -1.000000000000000000, 0.000000000000000000, 0.000000000000000000 ) ) ;
#937 = ADVANCED_FACE ( 'NONE', ( #664, #319 ), #669, .T. ) ;
#938 = ORIENTED_EDGE ( 'NONE', *, *, #443, .F. ) ;
#939 = FACE_OUTER_BOUND ( 'NONE', #698, .T. ) ;
#940 = CARTESIAN_POINT ( 'NONE',  ( 0.000000000000000000, 0.000000000000000000, 6.500000000000000888 ) ) ;
#941 = ORIENTED_EDGE ( 'NONE', *, *, #296, .F. ) ;
#942 = ORIENTED_EDGE ( 'NONE', *, *, #717, .T. ) ;
#943 = VECTOR ( 'NONE', #598, 1000.000000000000000 ) ;
#944 = VECTOR ( 'NONE', #393, 1000.000000000000000 ) ;
#945 =( LENGTH_UNIT ( ) NAMED_UNIT ( * ) SI_UNIT ( .MILLI., .METRE. ) );
#946 = CARTESIAN_POINT ( 'NONE',  ( -1.157162601033940640E-14, 47.25000000000000000, 3.000000000000000000 ) ) ;
#947 = ORIENTED_EDGE ( 'NONE', *, *, #120, .F. ) ;
#948 = AXIS2_PLACEMENT_3D ( 'NONE', #695, #310, #92 ) ;
#949 = ADVANCED_FACE ( 'NONE', ( #824 ), #155, .T. ) ;
#950 = CARTESIAN_POINT ( 'NONE',  ( 13.90000000000000391, 37.62500000000000000, 3.000000000000000000 ) ) ;
#951 = CARTESIAN_POINT ( 'NONE',  ( 77.89999999999999147, 9.624999999999998224, 6.500000000000000888 ) ) ;
#952 = ORIENTED_EDGE ( 'NONE', *, *, #183, .T. ) ;
#953 = CARTESIAN_POINT ( 'NONE',  ( 0.000000000000000000, 0.000000000000000000, 3.000000000000000000 ) ) ;
#954 = DIRECTION ( 'NONE',  ( 1.000000000000000000, 0.000000000000000000, 0.000000000000000000 ) ) ;
#955 = ORIENTED_EDGE ( 'NONE', *, *, #443, .T. ) ;
#956 = CARTESIAN_POINT ( 'NONE',  ( 77.89999999999999147, 9.624999999999998224, 3.000000000000000000 ) ) ;
#957 = CARTESIAN_POINT ( 'NONE',  ( 74.50000000000000000, 37.62500000000000000, 7.500000000000000000 ) ) ;
#958 = AXIS2_PLACEMENT_3D ( 'NONE', #72, #582, #954 ) ;
#959 = FACE_OUTER_BOUND ( 'NONE', #654, .T. ) ;
ENDSEC;
END-ISO-10303-21;
